<svg width="975" height="1341" viewBox="0 0 975 1341" fill="none" xmlns="http://www.w3.org/2000/svg">
<path opacity="0.6" d="M615.428 828.925C594.119 832.989 572.642 835.851 548.816 839.628L548.76 839.743C573.817 869.049 597.474 896.752 621.244 924.398C737.41 1059.65 853.687 1194.91 969.852 1330.16C971.977 1332.62 976.116 1334.8 974.718 1338.4C973.263 1342.18 968.789 1340.69 965.601 1340.69C929.918 1340.75 894.291 1340.35 858.664 1340.98C848.821 1341.15 842.333 1337.72 836.069 1330.39C786.46 1272.24 736.571 1214.37 686.793 1156.39C599.152 1054.27 511.455 952.159 423.982 849.874C417.941 842.776 411.733 839.914 402.449 839.914C307.705 840.258 212.905 840.143 118.16 840.143C106.825 840.182 101.158 845.944 101.158 857.429C101.158 1013.98 101.102 1170.52 101.382 1327.07C101.382 1337.6 98.808 1341.32 88.1255 1340.98C63.8522 1340.18 39.4675 1340.06 15.1942 1340.98C1.28107 1340.98 -0.633118 1331.71 0.148926 1327.07V752.054C0.0930176 739.347 3.61652 736.714 15.5295 736.714C178.619 737.115 341.765 736.943 504.855 737.057C534.721 737.057 564.141 734.653 593.56 729.158C736.795 702.371 877.568 565.915 869.179 380.577C865.655 302.848 834.838 239.313 778.182 188.657C711.514 129.072 630.808 108.123 544.957 103.659C508.603 101.77 472.025 102.857 435.559 102.857C294.673 102.8 153.787 102.8 12.9009 103.143C2.94543 103.143 -0.0188599 100.453 0.260803 90.2648C0.987915 65.3661 1.15564 40.4675 0.204834 15.6261C-0.242615 3.37706 2.77789 0 15.1942 0C186.226 0.457906 357.314 0.457906 528.402 0.228953C572.978 0.171715 616.938 5.49488 660.283 15.7978C755.139 38.2924 836.013 84.7126 895.969 164.617C967.335 259.747 982.939 368.157 960.679 482.69C926.786 657.153 786.404 796.413 615.428 828.925Z" fill="url(#paint0_linear_1_332)"/>
<defs>
<linearGradient id="paint0_linear_1_332" x1="975" y1="721.223" x2="-142.381" y2="721.223" gradientUnits="userSpaceOnUse">
<stop stop-color="#FDEFF9"/>
<stop offset="0.336458" stop-color="#EC38BC"/>
<stop offset="0.680208" stop-color="#7303C0"/>
<stop offset="1" stop-color="#03001E"/>
</linearGradient>
</defs>
</svg>
