<svg width="1040" height="1421" viewBox="0 0 1040 1421" fill="none" xmlns="http://www.w3.org/2000/svg">
<g opacity="0.6" filter="url(#filter0_d_1_332)">
<path d="M615.428 839.925C594.119 843.989 572.642 846.851 548.816 850.628L548.76 850.743C573.817 880.049 597.474 907.752 621.244 935.398C737.41 1070.65 853.687 1205.91 969.852 1341.16C971.977 1343.62 976.116 1345.8 974.718 1349.4C973.263 1353.18 968.789 1351.69 965.601 1351.69C929.918 1351.75 894.291 1351.35 858.664 1351.98C848.821 1352.15 842.333 1348.72 836.069 1341.39C786.46 1283.24 736.571 1225.37 686.793 1167.39C599.152 1065.27 511.455 963.159 423.982 860.874C417.941 853.776 411.733 850.914 402.449 850.914C307.705 851.258 212.905 851.143 118.16 851.143C106.825 851.182 101.158 856.944 101.158 868.429C101.158 1024.98 101.102 1181.52 101.382 1338.07C101.382 1348.6 98.808 1352.32 88.1255 1351.98C63.8522 1351.18 39.4675 1351.06 15.1942 1351.98C1.28107 1351.98 -0.633118 1342.71 0.148926 1338.07V763.054C0.0930176 750.347 3.61652 747.714 15.5295 747.714C178.619 748.115 341.765 747.943 504.855 748.057C534.721 748.057 564.141 745.653 593.56 740.158C736.795 713.371 877.568 576.915 869.179 391.577C865.655 313.848 834.838 250.313 778.182 199.657C711.514 140.072 630.808 119.123 544.957 114.659C508.603 112.77 472.025 113.857 435.559 113.857C294.673 113.8 153.787 113.8 12.9009 114.143C2.94543 114.143 -0.0188599 111.453 0.260803 101.265C0.987915 76.3661 1.15564 51.4675 0.204834 26.6261C-0.242615 14.3771 2.77789 11 15.1942 11C186.226 11.4579 357.314 11.4579 528.402 11.229C572.978 11.1717 616.938 16.4949 660.283 26.7978C755.139 49.2924 836.013 95.7126 895.969 175.617C967.335 270.747 982.939 379.157 960.679 493.69C926.786 668.153 786.404 807.413 615.428 839.925Z" fill="url(#paint0_linear_1_332)"/>
</g>
<defs>
<filter id="filter0_d_1_332" x="-65" y="-50" width="1105" height="1471" filterUnits="userSpaceOnUse" color-interpolation-filters="sRGB">
<feFlood flood-opacity="0" result="BackgroundImageFix"/>
<feColorMatrix in="SourceAlpha" type="matrix" values="0 0 0 0 0 0 0 0 0 0 0 0 0 0 0 0 0 0 127 0" result="hardAlpha"/>
<feOffset dy="4"/>
<feGaussianBlur stdDeviation="32.5"/>
<feComposite in2="hardAlpha" operator="out"/>
<feColorMatrix type="matrix" values="0 0 0 0 0.45098 0 0 0 0 0.0117647 0 0 0 0 0.752941 0 0 0 0.15 0"/>
<feBlend mode="normal" in2="BackgroundImageFix" result="effect1_dropShadow_1_332"/>
<feBlend mode="normal" in="SourceGraphic" in2="effect1_dropShadow_1_332" result="shape"/>
</filter>
<linearGradient id="paint0_linear_1_332" x1="975" y1="732.223" x2="-142.381" y2="732.223" gradientUnits="userSpaceOnUse">
<stop stop-color="#FDEFF9"/>
<stop offset="0.336458" stop-color="#EC38BC"/>
<stop offset="0.680208" stop-color="#7303C0"/>
<stop offset="1" stop-color="#03001E"/>
</linearGradient>
</defs>
</svg>
