<svg width="19" height="19" viewBox="0 0 19 19" fill="none" xmlns="http://www.w3.org/2000/svg">
<path d="M7.14149 0.825439C5.75104 0.825439 4.62484 1.83711 4.34311 3.15074C2.64544 3.45417 1.31759 4.87356 1.31759 6.66057C1.31759 6.84 1.33724 6.99974 1.36345 7.1624C0.893899 7.85386 0.5896 8.66859 0.5896 9.57814C0.5896 10.8889 1.24115 11.9917 2.15914 12.7918C2.09362 13.0515 2.04558 13.3104 2.04558 13.5898C2.04558 15.3936 3.52121 16.8721 5.32152 16.8721H5.36739C5.79108 17.6955 6.52489 18.3308 7.50549 18.3308C7.84517 18.3301 8.18126 18.2611 8.49386 18.1279C8.80646 17.9947 9.08924 17.8001 9.32546 17.5555C9.56168 17.8001 9.84446 17.9947 10.1571 18.1279C10.4697 18.2611 10.8057 18.3301 11.1454 18.3308C12.1268 18.3308 12.8598 17.6955 13.2843 16.8721H13.3294C15.0387 16.8721 16.4401 15.5387 16.5828 13.8633H16.6053C16.6053 13.8174 16.5857 13.7721 16.5828 13.7262C16.5857 13.681 16.6053 13.635 16.6053 13.5898C16.6053 13.3192 16.5085 13.088 16.4459 12.8378C17.3901 12.034 18.0613 10.9122 18.0613 9.57814C18.0613 8.66932 17.757 7.85459 17.2875 7.16167C17.3137 6.99974 17.3333 6.84073 17.3333 6.66057C17.3333 4.87356 16.0055 3.4549 14.3078 3.15001C14.0261 1.83784 12.8999 0.825439 11.5094 0.825439C10.6358 0.825439 9.8598 1.23317 9.32546 1.85096C8.79112 1.2339 8.01508 0.825439 7.14149 0.825439ZM7.14149 2.28422C7.95466 2.28422 8.59747 2.92828 8.59747 3.74301V5.20179C8.59747 6.41842 7.62779 7.38997 6.41351 7.38997V8.84875C7.23832 8.84875 7.98596 8.56429 8.59747 8.09675V15.778C8.59747 16.3907 8.117 16.8721 7.50549 16.8721C7.25079 16.8756 7.00317 16.7881 6.80714 16.6251C6.61112 16.4621 6.47954 16.2344 6.43607 15.9829L6.29994 15.2769L5.59452 15.3907C5.33532 15.4317 5.07032 15.4158 4.81787 15.344C4.56542 15.2722 4.33155 15.1464 4.13248 14.9751C3.9334 14.8038 3.77386 14.5912 3.66492 14.352C3.55598 14.1128 3.50024 13.8527 3.50155 13.5898C3.50155 13.3644 3.53795 13.1536 3.61512 12.9516C3.62094 12.9348 3.63259 12.9224 3.63769 12.9056C3.74939 12.6276 3.92861 12.3819 4.15909 12.1908C4.38957 11.9998 4.66402 11.8694 4.95753 11.8115L4.66197 10.3761C3.91897 10.5231 3.25084 10.9262 2.77356 11.5154C2.30023 10.982 2.04088 10.2919 2.04558 9.57814C2.04433 8.92222 2.26936 8.28603 2.68257 7.77727L2.91043 7.50375L2.842 7.13906C2.80074 6.98276 2.77778 6.82219 2.77356 6.66057C2.77356 5.44395 3.74324 4.4724 4.95753 4.4724H5.68552V3.74301C5.68552 2.92828 6.32833 2.28422 7.14149 2.28422ZM11.5094 2.28422C12.3226 2.28422 12.9654 2.92828 12.9654 3.74301V4.4724H13.6934C14.9077 4.4724 15.8774 5.44395 15.8774 6.66057C15.8774 6.81739 15.8482 6.96838 15.8089 7.13906L15.7412 7.50375L15.9684 7.77727C16.3816 8.28603 16.6066 8.92222 16.6053 9.57814C16.6053 10.4534 16.2326 11.2339 15.6269 11.7663C15.1297 11.325 14.4956 11.0369 13.7844 11.0369C13.0964 11.0369 12.4762 11.282 11.987 11.6978L12.9203 12.8152C13.1604 12.6078 13.4673 12.4943 13.7844 12.4957C14.4869 12.4957 15.0467 13.0231 15.1268 13.7036C15.0671 14.6642 14.302 15.4133 13.3294 15.4133C13.2639 15.4133 13.1838 15.4104 13.0564 15.3907L12.351 15.2762L12.2148 15.9837C12.1712 16.235 12.0396 16.4625 11.8436 16.6254C11.6476 16.7882 11.4 16.8757 11.1454 16.8721C10.5339 16.8721 10.0534 16.3907 10.0534 15.778V8.09675C10.6785 8.58237 11.4465 8.84682 12.2374 8.84875V7.38997C11.0231 7.38997 10.0534 6.41842 10.0534 5.20179V3.74301C10.0534 2.92828 10.6963 2.28422 11.5094 2.28422Z" fill="white"/>
</svg>
