<svg width="1280" height="324" viewBox="0 0 1280 324" fill="none" xmlns="http://www.w3.org/2000/svg">
<path d="M1011.39 202.864C1005.61 201.951 1000.4 201.259 995.234 200.278C953.754 192.423 919.697 158.777 911.474 116.627C906.074 88.955 909.86 62.763 927.173 39.7794C941.719 20.4743 961.339 9.25906 984.352 3.8243C994.867 1.3351 1005.53 0.0490141 1016.35 0.062843C1057.85 0.118159 1099.36 0.118159 1140.85 0.00752751C1143.87 0.00752751 1144.6 0.823433 1144.49 3.78282C1144.26 9.78455 1144.3 15.8001 1144.48 21.8157C1144.54 24.2772 1143.82 24.9272 1141.41 24.9272C1107.23 24.8442 1073.05 24.8442 1038.87 24.858C1030.02 24.858 1021.15 24.5953 1012.33 25.0516C991.502 26.1303 971.923 31.1917 955.749 45.5875C942.004 57.8261 934.527 73.1762 933.673 91.9558C931.637 136.734 965.79 169.702 1000.54 176.174C1007.68 177.501 1014.81 178.082 1022.06 178.082C1061.63 178.054 1101.21 178.096 1140.77 177.999C1143.66 177.999 1144.52 178.635 1144.5 181.705C1144.37 207.399 1144.44 233.107 1144.44 258.801V261.788L1144.94 261.927C1147.52 255.801 1150.12 249.688 1152.68 243.562C1186.19 163.548 1219.69 83.534 1253.13 3.49241C1254.18 1.00321 1255.32 -0.103104 1258.2 0.00752751C1265.31 0.284105 1272.43 0.104329 1280 0.104329C1278.22 4.4466 1276.59 8.52612 1274.9 12.5642C1231.94 115.23 1188.97 217.896 1146.06 320.589C1144.96 323.23 1143.61 324.101 1140.85 323.991C1134.96 323.77 1129.05 323.797 1123.16 323.991C1120.57 324.074 1119.94 323.175 1119.94 320.63C1120.01 282.808 1120 244.986 1120 207.164C1120 204.389 1118.62 202.997 1115.87 202.988C1092.89 202.988 1069.89 203.016 1046.9 202.933C1044.65 202.933 1043.14 203.624 1041.68 205.339C1020.46 230.051 999.182 254.722 977.92 279.393C965.844 293.401 953.741 307.382 941.705 321.432C940.186 323.203 938.612 324.032 936.224 323.991C927.58 323.839 918.937 323.935 910.28 323.922C909.507 323.922 908.421 324.281 908.069 323.368C907.729 322.497 908.733 321.972 909.249 321.377C937.431 288.699 965.64 256.022 993.823 223.344C999.589 216.665 1005.33 209.972 1011.41 202.891L1011.39 202.864Z" fill="#D44AB5"/>
<path d="M142.624 170.004C109.461 169.607 82.3252 196.465 82.0276 229.928C81.7486 263.751 107.881 290.741 141.266 291.081C174.484 291.441 200.858 264.829 201.155 230.685C201.434 197.808 174.968 170.364 142.624 170.004ZM141.136 282.318C112.902 282.148 90.5089 259.038 90.5647 230.155C90.6205 201.783 113.869 178.465 141.917 178.673C170.188 178.881 192.73 202.048 192.544 230.761C192.376 259.927 169.871 282.489 141.136 282.318Z" fill="#FAF4E6"/>
<path d="M764.829 222.571C772.742 222.571 780.655 222.744 788.549 222.495C791.771 222.399 792.6 223.529 792.789 226.575C794.635 255.52 775.493 280.672 747.344 286.151C718.292 291.802 690.69 273.661 683.323 244.103C676.088 215.12 692.122 185.351 720.195 176.692C739.978 170.582 758.121 174.566 774.004 188.205C775.361 189.374 778.3 190.523 775.304 193.071C773.364 194.718 772.327 197.764 768.71 194.431C753.807 180.754 731.876 178.225 714.731 187.726C696.191 197.994 687.072 217.303 690.238 239.582C692.819 257.723 708.74 274.044 727.825 278.067C755.766 283.948 782.878 262.991 784.743 234.18C784.932 231.326 783.99 230.809 781.503 230.828C768.088 230.924 754.674 230.751 741.24 230.962C737.792 231.019 736.982 229.889 736.982 226.556C736.982 223.299 737.924 222.418 741.089 222.514C748.984 222.744 756.916 222.591 764.81 222.591L764.829 222.571Z" fill="#FAF4E6"/>
<path d="M48.8434 250.579C45.447 246.61 46.2164 244.097 51.1889 242.486C51.9957 242.218 52.8027 241.969 53.5908 241.662C68.6209 236.139 77.8152 220.931 75.9201 204.726C74.2688 190.611 62.9165 180.236 46.723 178.586C32.7062 177.148 18.6331 178.184 4.57872 178.03C0.976002 177.992 -0.0185048 180.428 0.00025936 183.822C0.0753161 199.337 0.0378244 214.851 0.0378244 230.347C0.0378244 245.843 0.037806 261.952 0.0190419 277.754C0.0190419 279.883 0.206665 281.897 2.34578 282.817C3.82815 283.45 5.36679 283.392 6.66152 282.146C8.0876 280.803 7.93749 279.039 7.95625 277.332C7.95625 268.146 8.01253 258.941 7.93747 249.755C7.89994 245.804 9.49494 243.944 13.4917 244.097C17.845 244.251 22.2545 244.5 26.5703 244.04C31.1863 243.541 34.0948 245.516 36.9469 248.93C45.8599 259.65 55.0731 270.121 64.1174 280.727C65.8625 282.76 67.8703 284.255 70.2721 282.491C73.0868 280.42 72.3174 277.908 70.2721 275.51C63.1042 267.226 55.955 258.922 48.8621 250.579H48.8434ZM36.0087 235.928C28.5593 235.947 21.0912 235.985 13.6419 235.928C9.0071 235.889 8.01257 234.815 7.97504 230.002C7.91874 223.539 7.95625 217.076 7.95625 210.594V191.627C7.95625 189 8.48169 186.392 11.6341 186.392C23.5869 186.353 35.6146 185.222 47.4548 186.929C60.1019 188.751 67.8327 197.189 68.3018 208.063C68.8084 220.029 60.6273 231.325 48.9747 234.72C44.7153 235.966 40.362 235.928 36.0087 235.928Z" fill="#FAF4E6"/>
<path d="M644.657 250.66C640.15 245.413 640.488 244.283 647.192 242.292C662.93 237.639 673.089 222.415 671.7 205.603C670.517 191.145 658.948 180.25 642.441 178.565C628.281 177.129 614.027 178.239 599.83 177.971C596.431 177.894 595.642 179.886 595.66 182.969C595.735 198.748 595.698 214.545 595.698 230.324C595.698 246.102 595.717 261.881 595.66 277.66C595.66 280.685 595.848 283.098 599.792 283.04C603.604 283.002 603.586 280.513 603.586 277.794C603.567 268.315 603.661 258.836 603.529 249.377C603.492 245.643 604.6 243.785 608.6 243.958C614.083 244.188 619.586 244.111 625.07 243.958C627.398 243.9 629.013 244.666 630.516 246.466C634.985 251.828 639.586 257.056 644.15 262.321C649.54 268.583 654.911 274.826 660.319 281.068C662.516 283.634 665.484 283.979 667.775 282.006C670.348 279.785 667.963 277.679 666.404 275.879C659.155 267.453 651.906 259.047 644.657 250.66ZM630.159 235.82C623.398 235.839 616.638 235.839 609.896 235.82C603.924 235.82 603.586 235.494 603.586 229.596C603.567 223.43 603.586 217.264 603.586 211.098V190.877C603.586 188.579 603.886 186.282 606.759 186.301C618.853 186.377 631.023 185.209 643.023 186.856C655.662 188.599 663.38 196.967 664 207.862C664.657 219.658 656.413 231.128 644.807 234.575C639.999 236.011 635.06 235.8 630.159 235.82Z" fill="#FAF4E6"/>
<path d="M951.387 250.229C948.626 246.869 949.413 244.142 953.325 242.701C954.477 242.279 955.702 242.029 956.853 241.568C970.729 236.133 980.016 220.635 978.224 205.944C976.323 190.523 965.902 180.306 949.979 178.578C937 177.157 923.965 178.194 910.967 177.963C904.989 177.867 904.24 178.712 904.24 184.819C904.221 200.068 904.24 215.316 904.24 230.564V278.037C904.221 280.937 904.879 283.338 908.225 283.222C911.259 283.107 911.954 280.899 911.954 278.133C911.918 270.797 911.954 263.461 911.936 256.125C911.881 243.201 911.223 244.891 923.179 243.95C932.685 243.22 939.011 246.388 944.678 254.262C951.424 263.653 959.321 272.122 966.78 280.937C969.449 284.106 972.758 284.01 974.074 280.899C975.025 278.633 973.836 277.077 972.539 275.521C965.482 267.091 958.389 258.718 951.387 250.229ZM938.7 235.98C931.57 235.999 924.459 235.922 917.329 236.018C913.545 236.076 911.79 234.482 911.899 230.372C912.046 223.9 911.936 217.428 911.936 210.937C911.954 204.331 911.954 197.705 911.936 191.08C911.936 188.449 912.813 186.356 915.556 186.356C927.073 186.317 938.645 185.299 950.052 186.836C962.447 188.487 970.089 196.899 970.546 207.73C971.094 220.29 963.38 231.351 951.753 234.789C947.457 236.076 943.087 235.96 938.7 235.98Z" fill="#FAF4E6"/>
<path d="M247.026 173.925C256.343 173.925 265.173 175.845 272.99 181.22C279.701 185.847 284.032 192.162 284.782 200.648C284.894 201.895 285.569 203.969 283.151 203.527C281.089 203.143 277.714 205.255 277.096 202.049C274.34 187.632 263.71 183.965 251.806 182.276C243.463 181.086 235.252 182.43 227.772 186.691C220.911 190.608 216.768 196.328 217.218 204.813C217.649 212.895 222.523 217.541 229.16 220.536C237.521 224.337 246.538 226.026 255.293 228.522C260.43 229.981 265.529 231.555 270.347 233.897C287.256 242.133 290.275 264.478 276.233 277.264C261.742 290.452 232.478 290.49 217.968 277.34C212.925 272.771 209.963 267.089 209.288 260.178C209.138 258.662 208.932 256.953 211.106 257.356C213.169 257.721 216.543 255.59 217.106 259.007C219.28 272.023 228.653 276.265 239.452 278.281C248.132 279.894 256.83 279.087 264.947 275.075C272.371 271.408 277.002 265.534 276.908 256.876C276.814 248.353 271.584 243.342 264.366 240.213C255.687 236.431 246.388 234.799 237.39 232.093C232.815 230.71 228.26 229.29 223.948 227.197C206.138 218.539 203.72 194.927 219.336 182.506C226.329 176.958 236.077 173.925 246.988 173.906L247.026 173.925Z" fill="#FAF4E6"/>
<path d="M519.494 230.734C519.494 215.176 519.494 199.618 519.494 184.041C519.494 179.098 520.647 177.829 525.315 177.829C542.892 177.791 560.45 177.829 578.026 177.829C581.002 177.829 583.959 178.098 583.866 182.156C583.773 185.906 580.965 186.156 578.138 186.156C563.221 186.156 548.304 186.156 533.387 186.156C528.254 186.156 527.51 186.906 527.492 192.118C527.454 200.195 527.473 208.253 527.492 216.33C527.492 221.868 528.254 222.637 533.518 222.637C546.482 222.637 559.445 222.637 572.428 222.637C573.544 222.637 574.715 222.503 575.757 222.83C577.673 223.407 578.844 224.907 578.696 227.022C578.565 228.888 577.542 230.291 575.627 230.599C574.399 230.791 573.135 230.83 571.888 230.83C559.055 230.83 546.24 230.83 533.406 230.849C528.403 230.849 527.547 231.753 527.529 236.888C527.491 247.696 527.491 258.503 527.529 269.311C527.529 274.369 528.477 275.292 533.462 275.292C547.821 275.292 562.179 275.292 576.557 275.292C577.524 275.292 578.51 275.292 579.477 275.292C582.081 275.254 583.885 276.35 583.941 279.235C583.997 282.119 582.23 283.273 579.607 283.273C561.063 283.273 542.52 283.273 523.976 283.273C520.163 283.273 519.512 280.715 519.512 277.465C519.549 261.907 519.531 246.349 519.531 230.772L519.494 230.734Z" fill="#FAF4E6"/>
<path d="M387.659 276.088C373.744 245.189 359.792 214.29 345.877 183.391C345.023 181.502 344.131 179.765 341.753 179.765C339.375 179.765 338.483 181.616 337.647 183.467C323.732 214.366 309.817 245.284 295.884 276.183C294.732 278.722 294.026 281.279 297.091 282.749C300.25 284.275 301.94 282.252 303.166 279.466C306.789 271.297 310.579 263.205 314.072 254.98C315.447 251.773 317.36 250.533 320.778 250.59C332.334 250.762 343.889 250.533 355.445 250.685C370.307 250.895 366.146 248.243 372.648 262.079C375.472 268.11 378.166 274.198 380.897 280.287C381.9 282.5 383.405 283.665 385.857 283.035C387.752 282.577 388.644 281.298 388.644 278.741C388.458 278.206 388.123 277.118 387.659 276.088ZM357.266 243.261C352.138 243.338 346.992 243.28 341.846 243.28C336.7 243.28 331.572 243.338 326.445 243.261C322.042 243.204 320.574 241.009 322.357 236.982C327.504 225.34 332.798 213.756 337.982 202.133C338.799 200.301 339.877 198.907 341.939 198.965C343.834 199.003 344.874 200.377 345.599 202.018C350.819 213.622 356.095 225.207 361.241 236.849C363.025 240.895 361.538 243.204 357.266 243.261Z" fill="#FAF4E6"/>
<path d="M104.04 319C103.747 319 103.5 318.9 103.3 318.7C103.1 318.5 103 318.253 103 317.96V304.42C103 304.113 103.1 303.867 103.3 303.68C103.5 303.48 103.747 303.38 104.04 303.38H113.08C113.387 303.38 113.633 303.473 113.82 303.66C114.007 303.833 114.1 304.067 114.1 304.36C114.1 304.64 114.007 304.867 113.82 305.04C113.633 305.213 113.387 305.3 113.08 305.3H105.08V310.16H110.82C111.127 310.16 111.373 310.253 111.56 310.44C111.747 310.613 111.84 310.84 111.84 311.12C111.84 311.4 111.747 311.633 111.56 311.82C111.373 311.993 111.127 312.08 110.82 312.08H105.08V317.08H113.08C113.387 317.08 113.633 317.167 113.82 317.34C114.007 317.513 114.1 317.74 114.1 318.02C114.1 318.313 114.007 318.553 113.82 318.74C113.633 318.913 113.387 319 113.08 319H104.04ZM121.964 319.2C121.111 319.2 120.297 319.067 119.524 318.8C118.751 318.533 118.077 318.16 117.504 317.68C116.931 317.2 116.511 316.647 116.244 316.02C116.111 315.74 116.111 315.48 116.244 315.24C116.391 315 116.631 314.847 116.964 314.78C117.204 314.727 117.437 314.767 117.664 314.9C117.904 315.02 118.084 315.207 118.204 315.46C118.364 315.793 118.624 316.1 118.984 316.38C119.357 316.66 119.804 316.887 120.324 317.06C120.844 317.233 121.391 317.32 121.964 317.32C122.604 317.32 123.191 317.22 123.724 317.02C124.271 316.82 124.711 316.533 125.044 316.16C125.377 315.773 125.544 315.3 125.544 314.74C125.544 314.033 125.264 313.4 124.704 312.84C124.157 312.28 123.251 311.933 121.984 311.8C120.331 311.64 119.031 311.153 118.084 310.34C117.137 309.527 116.664 308.52 116.664 307.32C116.664 306.44 116.911 305.693 117.404 305.08C117.897 304.467 118.564 304 119.404 303.68C120.257 303.36 121.204 303.2 122.244 303.2C123.057 303.2 123.764 303.313 124.364 303.54C124.977 303.767 125.511 304.08 125.964 304.48C126.417 304.88 126.811 305.353 127.144 305.9C127.331 306.193 127.404 306.473 127.364 306.74C127.337 306.993 127.211 307.193 126.984 307.34C126.731 307.5 126.457 307.533 126.164 307.44C125.871 307.347 125.651 307.173 125.504 306.92C125.291 306.533 125.031 306.207 124.724 305.94C124.417 305.673 124.057 305.467 123.644 305.32C123.231 305.16 122.744 305.08 122.184 305.08C121.197 305.067 120.371 305.253 119.704 305.64C119.037 306.013 118.704 306.593 118.704 307.38C118.704 307.78 118.804 308.167 119.004 308.54C119.217 308.9 119.597 309.213 120.144 309.48C120.704 309.747 121.504 309.933 122.544 310.04C124.131 310.2 125.364 310.687 126.244 311.5C127.137 312.3 127.584 313.36 127.584 314.68C127.584 315.44 127.424 316.1 127.104 316.66C126.797 317.22 126.377 317.693 125.844 318.08C125.324 318.453 124.724 318.733 124.044 318.92C123.377 319.107 122.684 319.2 121.964 319.2ZM134.593 319C134.299 319 134.053 318.9 133.853 318.7C133.653 318.5 133.553 318.253 133.553 317.96V303.38H135.633V317.96C135.633 318.253 135.533 318.5 135.333 318.7C135.133 318.9 134.886 319 134.593 319ZM129.233 305.3C128.953 305.3 128.719 305.213 128.533 305.04C128.359 304.853 128.273 304.62 128.273 304.34C128.273 304.06 128.359 303.833 128.533 303.66C128.719 303.473 128.953 303.38 129.233 303.38H139.933C140.213 303.38 140.439 303.473 140.613 303.66C140.799 303.833 140.893 304.06 140.893 304.34C140.893 304.62 140.799 304.853 140.613 305.04C140.439 305.213 140.213 305.3 139.933 305.3H129.233ZM149.735 319.32C148.455 319.32 147.322 319.087 146.335 318.62C145.349 318.14 144.575 317.48 144.015 316.64C143.469 315.8 143.195 314.84 143.195 313.76V304.42C143.195 304.113 143.295 303.867 143.495 303.68C143.695 303.48 143.942 303.38 144.235 303.38C144.542 303.38 144.789 303.48 144.975 303.68C145.175 303.867 145.275 304.113 145.275 304.42V313.76C145.275 314.48 145.462 315.12 145.835 315.68C146.222 316.227 146.749 316.66 147.415 316.98C148.095 317.287 148.869 317.44 149.735 317.44C150.575 317.44 151.315 317.287 151.955 316.98C152.609 316.66 153.115 316.227 153.475 315.68C153.849 315.12 154.035 314.48 154.035 313.76V304.42C154.035 304.113 154.135 303.867 154.335 303.68C154.535 303.48 154.782 303.38 155.075 303.38C155.382 303.38 155.629 303.48 155.815 303.68C156.002 303.867 156.095 304.113 156.095 304.42V313.76C156.095 314.84 155.822 315.8 155.275 316.64C154.742 317.48 153.995 318.14 153.035 318.62C152.075 319.087 150.975 319.32 149.735 319.32ZM161.13 319C160.837 319 160.59 318.9 160.39 318.7C160.19 318.5 160.09 318.253 160.09 317.96V304.42C160.09 304.113 160.19 303.867 160.39 303.68C160.59 303.48 160.837 303.38 161.13 303.38H164.75C165.897 303.38 166.937 303.573 167.87 303.96C168.817 304.333 169.637 304.873 170.33 305.58C171.023 306.273 171.557 307.093 171.93 308.04C172.303 308.987 172.49 310.033 172.49 311.18C172.49 312.327 172.303 313.38 171.93 314.34C171.557 315.287 171.023 316.113 170.33 316.82C169.637 317.513 168.817 318.053 167.87 318.44C166.937 318.813 165.897 319 164.75 319H161.13ZM162.17 317.16H164.75C165.87 317.16 166.857 316.907 167.71 316.4C168.577 315.88 169.257 315.173 169.75 314.28C170.243 313.373 170.49 312.34 170.49 311.18C170.49 310.007 170.243 308.973 169.75 308.08C169.257 307.187 168.577 306.487 167.71 305.98C166.857 305.473 165.87 305.22 164.75 305.22H162.17V317.16ZM176.794 319C176.501 319 176.254 318.9 176.054 318.7C175.854 318.5 175.754 318.253 175.754 317.96V304.42C175.754 304.113 175.854 303.867 176.054 303.68C176.254 303.48 176.501 303.38 176.794 303.38C177.101 303.38 177.347 303.48 177.534 303.68C177.734 303.867 177.834 304.113 177.834 304.42V317.96C177.834 318.253 177.734 318.5 177.534 318.7C177.347 318.9 177.101 319 176.794 319ZM189.048 319.2C187.875 319.2 186.801 319.007 185.828 318.62C184.855 318.22 184.015 317.667 183.308 316.96C182.615 316.24 182.075 315.393 181.688 314.42C181.301 313.433 181.108 312.353 181.108 311.18C181.108 310.007 181.301 308.933 181.688 307.96C182.075 306.987 182.615 306.147 183.308 305.44C184.015 304.72 184.855 304.167 185.828 303.78C186.801 303.38 187.875 303.18 189.048 303.18C190.221 303.18 191.288 303.38 192.248 303.78C193.221 304.167 194.061 304.72 194.768 305.44C195.475 306.147 196.021 306.987 196.408 307.96C196.795 308.933 196.988 310.007 196.988 311.18C196.988 312.353 196.795 313.433 196.408 314.42C196.021 315.393 195.475 316.24 194.768 316.96C194.061 317.667 193.221 318.22 192.248 318.62C191.288 319.007 190.221 319.2 189.048 319.2ZM189.048 317.32C189.915 317.32 190.708 317.167 191.428 316.86C192.161 316.54 192.795 316.107 193.328 315.56C193.861 315 194.268 314.347 194.548 313.6C194.841 312.853 194.988 312.047 194.988 311.18C194.988 310.313 194.841 309.507 194.548 308.76C194.268 308.013 193.861 307.367 193.328 306.82C192.795 306.26 192.161 305.827 191.428 305.52C190.708 305.213 189.915 305.06 189.048 305.06C188.181 305.06 187.381 305.213 186.648 305.52C185.928 305.827 185.301 306.26 184.768 306.82C184.248 307.367 183.841 308.013 183.548 308.76C183.255 309.507 183.108 310.313 183.108 311.18C183.108 312.047 183.255 312.853 183.548 313.6C183.841 314.347 184.248 315 184.768 315.56C185.301 316.107 185.928 316.54 186.648 316.86C187.381 317.167 188.181 317.32 189.048 317.32ZM210.785 319C210.505 319 210.265 318.9 210.065 318.7C209.865 318.5 209.765 318.253 209.765 317.96V313.3L204.425 305C204.252 304.72 204.185 304.46 204.225 304.22C204.265 303.967 204.379 303.767 204.565 303.62C204.765 303.46 204.992 303.38 205.245 303.38C205.472 303.38 205.652 303.433 205.785 303.54C205.919 303.633 206.045 303.773 206.165 303.96L211.245 312.02H210.445L215.605 303.88C215.712 303.72 215.839 303.6 215.985 303.52C216.132 303.427 216.312 303.38 216.525 303.38C216.765 303.38 216.965 303.467 217.125 303.64C217.285 303.8 217.379 304.007 217.405 304.26C217.432 304.5 217.365 304.747 217.205 305L211.825 313.3V317.96C211.825 318.253 211.725 318.5 211.525 318.7C211.325 318.9 211.079 319 210.785 319ZM226.403 319C226.11 319 225.863 318.9 225.663 318.7C225.463 318.5 225.363 318.253 225.363 317.96V304.42C225.363 304.113 225.463 303.867 225.663 303.68C225.863 303.48 226.11 303.38 226.403 303.38H235.443C235.75 303.38 235.997 303.473 236.183 303.66C236.37 303.833 236.463 304.067 236.463 304.36C236.463 304.64 236.37 304.867 236.183 305.04C235.997 305.213 235.75 305.3 235.443 305.3H227.443V310.16H233.183C233.49 310.16 233.737 310.253 233.923 310.44C234.11 310.613 234.203 310.84 234.203 311.12C234.203 311.4 234.11 311.633 233.923 311.82C233.737 311.993 233.49 312.08 233.183 312.08H227.443V317.08H235.443C235.75 317.08 235.997 317.167 236.183 317.34C236.37 317.513 236.463 317.74 236.463 318.02C236.463 318.313 236.37 318.553 236.183 318.74C235.997 318.913 235.75 319 235.443 319H226.403ZM244.327 319.2C243.474 319.2 242.661 319.067 241.887 318.8C241.114 318.533 240.441 318.16 239.867 317.68C239.294 317.2 238.874 316.647 238.607 316.02C238.474 315.74 238.474 315.48 238.607 315.24C238.754 315 238.994 314.847 239.327 314.78C239.567 314.727 239.801 314.767 240.027 314.9C240.267 315.02 240.447 315.207 240.567 315.46C240.727 315.793 240.987 316.1 241.347 316.38C241.721 316.66 242.167 316.887 242.687 317.06C243.207 317.233 243.754 317.32 244.327 317.32C244.967 317.32 245.554 317.22 246.087 317.02C246.634 316.82 247.074 316.533 247.407 316.16C247.741 315.773 247.907 315.3 247.907 314.74C247.907 314.033 247.627 313.4 247.067 312.84C246.521 312.28 245.614 311.933 244.347 311.8C242.694 311.64 241.394 311.153 240.447 310.34C239.501 309.527 239.027 308.52 239.027 307.32C239.027 306.44 239.274 305.693 239.767 305.08C240.261 304.467 240.927 304 241.767 303.68C242.621 303.36 243.567 303.2 244.607 303.2C245.421 303.2 246.127 303.313 246.727 303.54C247.341 303.767 247.874 304.08 248.327 304.48C248.781 304.88 249.174 305.353 249.507 305.9C249.694 306.193 249.767 306.473 249.727 306.74C249.701 306.993 249.574 307.193 249.347 307.34C249.094 307.5 248.821 307.533 248.527 307.44C248.234 307.347 248.014 307.173 247.867 306.92C247.654 306.533 247.394 306.207 247.087 305.94C246.781 305.673 246.421 305.467 246.007 305.32C245.594 305.16 245.107 305.08 244.547 305.08C243.561 305.067 242.734 305.253 242.067 305.64C241.401 306.013 241.067 306.593 241.067 307.38C241.067 307.78 241.167 308.167 241.367 308.54C241.581 308.9 241.961 309.213 242.507 309.48C243.067 309.747 243.867 309.933 244.907 310.04C246.494 310.2 247.727 310.687 248.607 311.5C249.501 312.3 249.947 313.36 249.947 314.68C249.947 315.44 249.787 316.1 249.467 316.66C249.161 317.22 248.741 317.693 248.207 318.08C247.687 318.453 247.087 318.733 246.407 318.92C245.741 319.107 245.047 319.2 244.327 319.2ZM260.137 319.2C259.057 319.2 258.043 319 257.097 318.6C256.163 318.187 255.343 317.62 254.637 316.9C253.943 316.167 253.397 315.313 252.997 314.34C252.61 313.367 252.417 312.313 252.417 311.18C252.417 310.06 252.61 309.02 252.997 308.06C253.397 307.087 253.943 306.24 254.637 305.52C255.343 304.787 256.163 304.213 257.097 303.8C258.03 303.387 259.043 303.18 260.137 303.18C261.163 303.18 262.043 303.313 262.777 303.58C263.523 303.847 264.27 304.287 265.017 304.9C265.123 304.98 265.203 305.067 265.257 305.16C265.323 305.24 265.363 305.327 265.377 305.42C265.403 305.5 265.417 305.6 265.417 305.72C265.417 305.973 265.323 306.187 265.137 306.36C264.963 306.52 264.75 306.613 264.497 306.64C264.243 306.653 263.997 306.567 263.757 306.38C263.263 305.953 262.75 305.627 262.217 305.4C261.697 305.173 261.003 305.06 260.137 305.06C259.35 305.06 258.61 305.22 257.917 305.54C257.223 305.86 256.61 306.3 256.077 306.86C255.557 307.42 255.15 308.073 254.857 308.82C254.563 309.553 254.417 310.34 254.417 311.18C254.417 312.033 254.563 312.833 254.857 313.58C255.15 314.313 255.557 314.96 256.077 315.52C256.61 316.08 257.223 316.52 257.917 316.84C258.61 317.147 259.35 317.3 260.137 317.3C260.817 317.3 261.457 317.187 262.057 316.96C262.67 316.72 263.257 316.393 263.817 315.98C264.057 315.807 264.29 315.733 264.517 315.76C264.757 315.773 264.957 315.867 265.117 316.04C265.277 316.2 265.357 316.427 265.357 316.72C265.357 316.853 265.33 316.987 265.277 317.12C265.223 317.24 265.143 317.353 265.037 317.46C264.317 318.033 263.543 318.467 262.717 318.76C261.903 319.053 261.043 319.2 260.137 319.2ZM275.224 319.32C273.944 319.32 272.81 319.087 271.824 318.62C270.837 318.14 270.064 317.48 269.504 316.64C268.957 315.8 268.684 314.84 268.684 313.76V304.42C268.684 304.113 268.784 303.867 268.984 303.68C269.184 303.48 269.43 303.38 269.724 303.38C270.03 303.38 270.277 303.48 270.464 303.68C270.664 303.867 270.764 304.113 270.764 304.42V313.76C270.764 314.48 270.95 315.12 271.324 315.68C271.71 316.227 272.237 316.66 272.904 316.98C273.584 317.287 274.357 317.44 275.224 317.44C276.064 317.44 276.804 317.287 277.444 316.98C278.097 316.66 278.604 316.227 278.964 315.68C279.337 315.12 279.524 314.48 279.524 313.76V304.42C279.524 304.113 279.624 303.867 279.824 303.68C280.024 303.48 280.27 303.38 280.564 303.38C280.87 303.38 281.117 303.48 281.304 303.68C281.49 303.867 281.584 304.113 281.584 304.42V313.76C281.584 314.84 281.31 315.8 280.764 316.64C280.23 317.48 279.484 318.14 278.524 318.62C277.564 319.087 276.464 319.32 275.224 319.32ZM286.618 319C286.325 319 286.078 318.9 285.878 318.7C285.678 318.5 285.578 318.253 285.578 317.96V304.42C285.578 304.113 285.678 303.867 285.878 303.68C286.078 303.48 286.325 303.38 286.618 303.38H295.658C295.965 303.38 296.211 303.473 296.398 303.66C296.585 303.833 296.678 304.067 296.678 304.36C296.678 304.64 296.585 304.867 296.398 305.04C296.211 305.213 295.965 305.3 295.658 305.3H287.658V310.16H293.398C293.705 310.16 293.951 310.253 294.138 310.44C294.325 310.613 294.418 310.84 294.418 311.12C294.418 311.4 294.325 311.633 294.138 311.82C293.951 311.993 293.705 312.08 293.398 312.08H287.658V317.08H295.658C295.965 317.08 296.211 317.167 296.398 317.34C296.585 317.513 296.678 317.74 296.678 318.02C296.678 318.313 296.585 318.553 296.398 318.74C296.211 318.913 295.965 319 295.658 319H286.618ZM300.602 319C300.309 319 300.062 318.9 299.862 318.7C299.675 318.5 299.582 318.253 299.582 317.96V304.42C299.582 304.127 299.682 303.88 299.882 303.68C300.082 303.48 300.322 303.38 300.602 303.38C300.895 303.38 301.142 303.48 301.342 303.68C301.542 303.88 301.642 304.127 301.642 304.42V316.92H308.882C309.175 316.92 309.422 317.02 309.622 317.22C309.822 317.42 309.922 317.667 309.922 317.96C309.922 318.253 309.822 318.5 309.622 318.7C309.422 318.9 309.175 319 308.882 319H300.602ZM311.794 319C311.421 319 311.134 318.84 310.934 318.52C310.734 318.2 310.714 317.86 310.874 317.5L316.494 304.08C316.694 303.613 317.021 303.38 317.474 303.38C317.954 303.38 318.281 303.613 318.454 304.08L324.094 317.54C324.241 317.913 324.214 318.253 324.014 318.56C323.827 318.853 323.541 319 323.154 319C322.954 319 322.761 318.947 322.574 318.84C322.401 318.72 322.274 318.56 322.194 318.36L317.234 306.04H317.794L312.754 318.36C312.661 318.573 312.521 318.733 312.334 318.84C312.161 318.947 311.981 319 311.794 319ZM312.854 315.56L313.654 313.84H321.494L322.294 315.56H312.854ZM333.376 319C333.083 319 332.836 318.9 332.636 318.7C332.436 318.5 332.336 318.253 332.336 317.96V304.42C332.336 304.113 332.436 303.867 332.636 303.68C332.836 303.48 333.083 303.38 333.376 303.38H336.996C338.143 303.38 339.183 303.573 340.116 303.96C341.063 304.333 341.883 304.873 342.576 305.58C343.269 306.273 343.803 307.093 344.176 308.04C344.549 308.987 344.736 310.033 344.736 311.18C344.736 312.327 344.549 313.38 344.176 314.34C343.803 315.287 343.269 316.113 342.576 316.82C341.883 317.513 341.063 318.053 340.116 318.44C339.183 318.813 338.143 319 336.996 319H333.376ZM334.416 317.16H336.996C338.116 317.16 339.103 316.907 339.956 316.4C340.823 315.88 341.503 315.173 341.996 314.28C342.489 313.373 342.736 312.34 342.736 311.18C342.736 310.007 342.489 308.973 341.996 308.08C341.503 307.187 340.823 306.487 339.956 305.98C339.103 305.473 338.116 305.22 336.996 305.22H334.416V317.16ZM349.04 319C348.747 319 348.5 318.9 348.3 318.7C348.1 318.5 348 318.253 348 317.96V304.42C348 304.113 348.1 303.867 348.3 303.68C348.5 303.48 348.747 303.38 349.04 303.38H358.08C358.387 303.38 358.633 303.473 358.82 303.66C359.007 303.833 359.1 304.067 359.1 304.36C359.1 304.64 359.007 304.867 358.82 305.04C358.633 305.213 358.387 305.3 358.08 305.3H350.08V310.16H355.82C356.127 310.16 356.373 310.253 356.56 310.44C356.747 310.613 356.84 310.84 356.84 311.12C356.84 311.4 356.747 311.633 356.56 311.82C356.373 311.993 356.127 312.08 355.82 312.08H350.08V317.08H358.08C358.387 317.08 358.633 317.167 358.82 317.34C359.007 317.513 359.1 317.74 359.1 318.02C359.1 318.313 359.007 318.553 358.82 318.74C358.633 318.913 358.387 319 358.08 319H349.04ZM368.903 319C368.61 319 368.363 318.9 368.163 318.7C367.963 318.5 367.863 318.253 367.863 317.96V304.42C367.863 304.113 367.963 303.867 368.163 303.68C368.363 303.48 368.61 303.38 368.903 303.38C369.303 303.38 369.61 303.567 369.823 303.94L376.083 316.48H375.443L381.543 303.94C381.757 303.567 382.063 303.38 382.463 303.38C382.757 303.38 383.003 303.48 383.203 303.68C383.403 303.867 383.503 304.113 383.503 304.42V317.96C383.503 318.253 383.397 318.5 383.183 318.7C382.983 318.9 382.743 319 382.463 319C382.17 319 381.923 318.9 381.723 318.7C381.523 318.5 381.423 318.253 381.423 317.96V307.3L381.823 307.2L376.583 317.88C376.357 318.227 376.057 318.4 375.683 318.4C375.243 318.4 374.923 318.193 374.723 317.78L369.543 307.4L369.943 307.3V317.96C369.943 318.253 369.843 318.5 369.643 318.7C369.443 318.9 369.197 319 368.903 319ZM386.892 319C386.518 319 386.232 318.84 386.032 318.52C385.832 318.2 385.812 317.86 385.972 317.5L391.592 304.08C391.792 303.613 392.118 303.38 392.572 303.38C393.052 303.38 393.378 303.613 393.552 304.08L399.192 317.54C399.338 317.913 399.312 318.253 399.112 318.56C398.925 318.853 398.638 319 398.252 319C398.052 319 397.858 318.947 397.672 318.84C397.498 318.72 397.372 318.56 397.292 318.36L392.332 306.04H392.892L387.852 318.36C387.758 318.573 387.618 318.733 387.432 318.84C387.258 318.947 387.078 319 386.892 319ZM387.952 315.56L388.752 313.84H396.592L397.392 315.56H387.952ZM413.864 318.68L409.684 314.5C409.47 314.287 409.364 314.053 409.364 313.8C409.364 313.533 409.47 313.293 409.684 313.08C409.897 312.867 410.13 312.76 410.384 312.76C410.65 312.76 410.89 312.867 411.104 313.08L415.284 317.28C415.484 317.493 415.584 317.727 415.584 317.98C415.597 318.233 415.497 318.467 415.284 318.68C415.07 318.893 414.83 319 414.564 319C414.31 319 414.077 318.893 413.864 318.68ZM408.404 319.2C407.23 319.2 406.157 319.007 405.184 318.62C404.21 318.22 403.37 317.667 402.664 316.96C401.97 316.24 401.43 315.393 401.044 314.42C400.657 313.433 400.464 312.353 400.464 311.18C400.464 310.007 400.657 308.933 401.044 307.96C401.43 306.987 401.97 306.147 402.664 305.44C403.37 304.72 404.21 304.167 405.184 303.78C406.157 303.38 407.23 303.18 408.404 303.18C409.577 303.18 410.644 303.38 411.604 303.78C412.577 304.167 413.417 304.72 414.124 305.44C414.83 306.147 415.377 306.987 415.764 307.96C416.15 308.933 416.344 310.007 416.344 311.18C416.344 312.353 416.15 313.433 415.764 314.42C415.377 315.393 414.83 316.24 414.124 316.96C413.417 317.667 412.577 318.22 411.604 318.62C410.644 319.007 409.577 319.2 408.404 319.2ZM408.404 317.32C409.27 317.32 410.064 317.167 410.784 316.86C411.517 316.54 412.15 316.107 412.684 315.56C413.217 315 413.624 314.347 413.904 313.6C414.197 312.853 414.344 312.047 414.344 311.18C414.344 310.313 414.197 309.507 413.904 308.76C413.624 308.013 413.217 307.367 412.684 306.82C412.15 306.26 411.517 305.827 410.784 305.52C410.064 305.213 409.27 305.06 408.404 305.06C407.537 305.06 406.737 305.213 406.004 305.52C405.284 305.827 404.657 306.26 404.124 306.82C403.604 307.367 403.197 308.013 402.904 308.76C402.61 309.507 402.464 310.313 402.464 311.18C402.464 312.047 402.61 312.853 402.904 313.6C403.197 314.347 403.604 315 404.124 315.56C404.657 316.107 405.284 316.54 406.004 316.86C406.737 317.167 407.537 317.32 408.404 317.32ZM426.142 319.32C424.862 319.32 423.728 319.087 422.742 318.62C421.755 318.14 420.982 317.48 420.422 316.64C419.875 315.8 419.602 314.84 419.602 313.76V304.42C419.602 304.113 419.702 303.867 419.902 303.68C420.102 303.48 420.348 303.38 420.642 303.38C420.948 303.38 421.195 303.48 421.382 303.68C421.582 303.867 421.682 304.113 421.682 304.42V313.76C421.682 314.48 421.868 315.12 422.242 315.68C422.628 316.227 423.155 316.66 423.822 316.98C424.502 317.287 425.275 317.44 426.142 317.44C426.982 317.44 427.722 317.287 428.362 316.98C429.015 316.66 429.522 316.227 429.882 315.68C430.255 315.12 430.442 314.48 430.442 313.76V304.42C430.442 304.113 430.542 303.867 430.742 303.68C430.942 303.48 431.188 303.38 431.482 303.38C431.788 303.38 432.035 303.48 432.222 303.68C432.408 303.867 432.502 304.113 432.502 304.42V313.76C432.502 314.84 432.228 315.8 431.682 316.64C431.148 317.48 430.402 318.14 429.442 318.62C428.482 319.087 427.382 319.32 426.142 319.32ZM437.536 319C437.243 319 436.996 318.9 436.796 318.7C436.596 318.5 436.496 318.253 436.496 317.96V304.42C436.496 304.113 436.596 303.867 436.796 303.68C436.996 303.48 437.243 303.38 437.536 303.38C437.843 303.38 438.089 303.48 438.276 303.68C438.476 303.867 438.576 304.113 438.576 304.42V317.96C438.576 318.253 438.476 318.5 438.276 318.7C438.089 318.9 437.843 319 437.536 319ZM443.59 319C443.297 319 443.05 318.9 442.85 318.7C442.664 318.5 442.57 318.253 442.57 317.96V304.42C442.57 304.127 442.67 303.88 442.87 303.68C443.07 303.48 443.31 303.38 443.59 303.38C443.884 303.38 444.13 303.48 444.33 303.68C444.53 303.88 444.63 304.127 444.63 304.42V316.92H451.87C452.164 316.92 452.41 317.02 452.61 317.22C452.81 317.42 452.91 317.667 452.91 317.96C452.91 318.253 452.81 318.5 452.61 318.7C452.41 318.9 452.164 319 451.87 319H443.59ZM456.422 319C456.129 319 455.882 318.9 455.682 318.7C455.496 318.5 455.402 318.253 455.402 317.96V304.42C455.402 304.127 455.502 303.88 455.702 303.68C455.902 303.48 456.142 303.38 456.422 303.38C456.716 303.38 456.962 303.48 457.162 303.68C457.362 303.88 457.462 304.127 457.462 304.42V316.92H464.702C464.996 316.92 465.242 317.02 465.442 317.22C465.642 317.42 465.742 317.667 465.742 317.96C465.742 318.253 465.642 318.5 465.442 318.7C465.242 318.9 464.996 319 464.702 319H456.422ZM467.614 319C467.241 319 466.954 318.84 466.754 318.52C466.554 318.2 466.534 317.86 466.694 317.5L472.314 304.08C472.514 303.613 472.841 303.38 473.294 303.38C473.774 303.38 474.101 303.613 474.274 304.08L479.914 317.54C480.061 317.913 480.034 318.253 479.834 318.56C479.648 318.853 479.361 319 478.974 319C478.774 319 478.581 318.947 478.394 318.84C478.221 318.72 478.094 318.56 478.014 318.36L473.054 306.04H473.614L468.574 318.36C468.481 318.573 468.341 318.733 468.154 318.84C467.981 318.947 467.801 319 467.614 319ZM468.674 315.56L469.474 313.84H477.314L478.114 315.56H468.674ZM485.997 319.2C485.064 319.2 484.23 319 483.497 318.6C482.777 318.187 482.21 317.62 481.797 316.9C481.397 316.167 481.197 315.333 481.197 314.4C481.197 314.093 481.297 313.847 481.497 313.66C481.697 313.46 481.944 313.36 482.237 313.36C482.544 313.36 482.79 313.46 482.977 313.66C483.177 313.847 483.277 314.093 483.277 314.4C483.277 314.973 483.39 315.48 483.617 315.92C483.857 316.36 484.177 316.707 484.577 316.96C484.99 317.2 485.464 317.32 485.997 317.32C486.53 317.32 487.004 317.2 487.417 316.96C487.83 316.707 488.15 316.36 488.377 315.92C488.617 315.48 488.737 314.973 488.737 314.4V304.42C488.737 304.113 488.83 303.867 489.017 303.68C489.217 303.48 489.464 303.38 489.757 303.38C490.064 303.38 490.317 303.48 490.517 303.68C490.717 303.867 490.817 304.113 490.817 304.42V314.4C490.817 315.333 490.61 316.167 490.197 316.9C489.784 317.62 489.217 318.187 488.497 318.6C487.777 319 486.944 319.2 485.997 319.2ZM495.856 319C495.563 319 495.316 318.9 495.116 318.7C494.916 318.5 494.816 318.253 494.816 317.96V304.42C494.816 304.113 494.916 303.867 495.116 303.68C495.316 303.48 495.563 303.38 495.856 303.38H504.896C505.203 303.38 505.45 303.473 505.636 303.66C505.823 303.833 505.916 304.067 505.916 304.36C505.916 304.64 505.823 304.867 505.636 305.04C505.45 305.213 505.203 305.3 504.896 305.3H496.896V310.16H502.636C502.943 310.16 503.19 310.253 503.376 310.44C503.563 310.613 503.656 310.84 503.656 311.12C503.656 311.4 503.563 311.633 503.376 311.82C503.19 311.993 502.943 312.08 502.636 312.08H496.896V317.08H504.896C505.203 317.08 505.45 317.167 505.636 317.34C505.823 317.513 505.916 317.74 505.916 318.02C505.916 318.313 505.823 318.553 505.636 318.74C505.45 318.913 505.203 319 504.896 319H495.856ZM515.72 319C515.426 319 515.18 318.9 514.98 318.7C514.78 318.5 514.68 318.253 514.68 317.96V304.42C514.68 304.113 514.78 303.867 514.98 303.68C515.18 303.48 515.426 303.38 515.72 303.38H519.72C520.72 303.38 521.606 303.6 522.38 304.04C523.153 304.48 523.753 305.093 524.18 305.88C524.62 306.653 524.84 307.547 524.84 308.56C524.84 309.533 524.62 310.4 524.18 311.16C523.753 311.92 523.153 312.513 522.38 312.94C521.606 313.367 520.72 313.58 519.72 313.58H516.76V317.96C516.76 318.253 516.66 318.5 516.46 318.7C516.273 318.9 516.026 319 515.72 319ZM516.76 311.66H519.72C520.333 311.66 520.873 311.527 521.34 311.26C521.806 310.993 522.173 310.627 522.44 310.16C522.706 309.693 522.84 309.16 522.84 308.56C522.84 307.92 522.706 307.36 522.44 306.88C522.173 306.387 521.806 306 521.34 305.72C520.873 305.44 520.333 305.3 519.72 305.3H516.76V311.66ZM528.181 319C527.887 319 527.641 318.9 527.441 318.7C527.241 318.5 527.141 318.253 527.141 317.96V304.42C527.141 304.113 527.241 303.867 527.441 303.68C527.641 303.48 527.887 303.38 528.181 303.38H531.781C532.781 303.38 533.667 303.593 534.441 304.02C535.214 304.433 535.814 305.007 536.241 305.74C536.681 306.473 536.901 307.327 536.901 308.3C536.901 309.207 536.681 310.013 536.241 310.72C535.814 311.427 535.214 311.98 534.441 312.38C533.667 312.78 532.781 312.98 531.781 312.98H529.221V317.96C529.221 318.253 529.121 318.5 528.921 318.7C528.734 318.9 528.487 319 528.181 319ZM536.481 319C536.294 319 536.121 318.96 535.961 318.88C535.814 318.8 535.687 318.673 535.581 318.5L531.981 312.7L534.001 312.12L537.281 317.4C537.521 317.787 537.554 318.153 537.381 318.5C537.207 318.833 536.907 319 536.481 319ZM529.221 311.06H531.781C532.394 311.06 532.934 310.947 533.401 310.72C533.867 310.48 534.234 310.153 534.501 309.74C534.767 309.313 534.901 308.833 534.901 308.3C534.901 307.713 534.767 307.193 534.501 306.74C534.234 306.287 533.867 305.933 533.401 305.68C532.934 305.427 532.394 305.3 531.781 305.3H529.221V311.06ZM546.997 319.2C545.824 319.2 544.751 319.007 543.777 318.62C542.804 318.22 541.964 317.667 541.257 316.96C540.564 316.24 540.024 315.393 539.637 314.42C539.251 313.433 539.057 312.353 539.057 311.18C539.057 310.007 539.251 308.933 539.637 307.96C540.024 306.987 540.564 306.147 541.257 305.44C541.964 304.72 542.804 304.167 543.777 303.78C544.751 303.38 545.824 303.18 546.997 303.18C548.171 303.18 549.237 303.38 550.197 303.78C551.171 304.167 552.011 304.72 552.717 305.44C553.424 306.147 553.971 306.987 554.357 307.96C554.744 308.933 554.937 310.007 554.937 311.18C554.937 312.353 554.744 313.433 554.357 314.42C553.971 315.393 553.424 316.24 552.717 316.96C552.011 317.667 551.171 318.22 550.197 318.62C549.237 319.007 548.171 319.2 546.997 319.2ZM546.997 317.32C547.864 317.32 548.657 317.167 549.377 316.86C550.111 316.54 550.744 316.107 551.277 315.56C551.811 315 552.217 314.347 552.497 313.6C552.791 312.853 552.937 312.047 552.937 311.18C552.937 310.313 552.791 309.507 552.497 308.76C552.217 308.013 551.811 307.367 551.277 306.82C550.744 306.26 550.111 305.827 549.377 305.52C548.657 305.213 547.864 305.06 546.997 305.06C546.131 305.06 545.331 305.213 544.597 305.52C543.877 305.827 543.251 306.26 542.717 306.82C542.197 307.367 541.791 308.013 541.497 308.76C541.204 309.507 541.057 310.313 541.057 311.18C541.057 312.047 541.204 312.853 541.497 313.6C541.791 314.347 542.197 315 542.717 315.56C543.251 316.107 543.877 316.54 544.597 316.86C545.331 317.167 546.131 317.32 546.997 317.32ZM557.975 319C557.682 319 557.435 318.9 557.235 318.7C557.035 318.5 556.935 318.253 556.935 317.96V304.42C556.935 304.113 557.035 303.867 557.235 303.68C557.435 303.48 557.682 303.38 557.975 303.38H567.015C567.322 303.38 567.569 303.473 567.755 303.66C567.942 303.833 568.035 304.067 568.035 304.36C568.035 304.64 567.942 304.867 567.755 305.04C567.569 305.213 567.322 305.3 567.015 305.3H559.015V310.16H564.755C565.062 310.16 565.309 310.253 565.495 310.44C565.682 310.613 565.775 310.84 565.775 311.12C565.775 311.4 565.682 311.633 565.495 311.82C565.309 311.993 565.062 312.08 564.755 312.08H559.015V317.96C559.015 318.253 558.915 318.5 558.715 318.7C558.515 318.9 558.269 319 557.975 319ZM571.735 319C571.442 319 571.195 318.9 570.995 318.7C570.795 318.5 570.695 318.253 570.695 317.96V304.42C570.695 304.113 570.795 303.867 570.995 303.68C571.195 303.48 571.442 303.38 571.735 303.38H580.775C581.082 303.38 581.329 303.473 581.515 303.66C581.702 303.833 581.795 304.067 581.795 304.36C581.795 304.64 581.702 304.867 581.515 305.04C581.329 305.213 581.082 305.3 580.775 305.3H572.775V310.16H578.515C578.822 310.16 579.069 310.253 579.255 310.44C579.442 310.613 579.535 310.84 579.535 311.12C579.535 311.4 579.442 311.633 579.255 311.82C579.069 311.993 578.822 312.08 578.515 312.08H572.775V317.08H580.775C581.082 317.08 581.329 317.167 581.515 317.34C581.702 317.513 581.795 317.74 581.795 318.02C581.795 318.313 581.702 318.553 581.515 318.74C581.329 318.913 581.082 319 580.775 319H571.735ZM589.659 319.2C588.806 319.2 587.993 319.067 587.219 318.8C586.446 318.533 585.773 318.16 585.199 317.68C584.626 317.2 584.206 316.647 583.939 316.02C583.806 315.74 583.806 315.48 583.939 315.24C584.086 315 584.326 314.847 584.659 314.78C584.899 314.727 585.133 314.767 585.359 314.9C585.599 315.02 585.779 315.207 585.899 315.46C586.059 315.793 586.319 316.1 586.679 316.38C587.053 316.66 587.499 316.887 588.019 317.06C588.539 317.233 589.086 317.32 589.659 317.32C590.299 317.32 590.886 317.22 591.419 317.02C591.966 316.82 592.406 316.533 592.739 316.16C593.073 315.773 593.239 315.3 593.239 314.74C593.239 314.033 592.959 313.4 592.399 312.84C591.853 312.28 590.946 311.933 589.679 311.8C588.026 311.64 586.726 311.153 585.779 310.34C584.833 309.527 584.359 308.52 584.359 307.32C584.359 306.44 584.606 305.693 585.099 305.08C585.593 304.467 586.259 304 587.099 303.68C587.953 303.36 588.899 303.2 589.939 303.2C590.753 303.2 591.459 303.313 592.059 303.54C592.673 303.767 593.206 304.08 593.659 304.48C594.113 304.88 594.506 305.353 594.839 305.9C595.026 306.193 595.099 306.473 595.059 306.74C595.033 306.993 594.906 307.193 594.679 307.34C594.426 307.5 594.153 307.533 593.859 307.44C593.566 307.347 593.346 307.173 593.199 306.92C592.986 306.533 592.726 306.207 592.419 305.94C592.113 305.673 591.753 305.467 591.339 305.32C590.926 305.16 590.439 305.08 589.879 305.08C588.893 305.067 588.066 305.253 587.399 305.64C586.733 306.013 586.399 306.593 586.399 307.38C586.399 307.78 586.499 308.167 586.699 308.54C586.913 308.9 587.293 309.213 587.839 309.48C588.399 309.747 589.199 309.933 590.239 310.04C591.826 310.2 593.059 310.687 593.939 311.5C594.833 312.3 595.279 313.36 595.279 314.68C595.279 315.44 595.119 316.1 594.799 316.66C594.493 317.22 594.073 317.693 593.539 318.08C593.019 318.453 592.419 318.733 591.739 318.92C591.073 319.107 590.379 319.2 589.659 319.2ZM599.509 319C599.215 319 598.969 318.9 598.769 318.7C598.569 318.5 598.469 318.253 598.469 317.96V304.42C598.469 304.113 598.569 303.867 598.769 303.68C598.969 303.48 599.215 303.38 599.509 303.38C599.815 303.38 600.062 303.48 600.249 303.68C600.449 303.867 600.549 304.113 600.549 304.42V317.96C600.549 318.253 600.449 318.5 600.249 318.7C600.062 318.9 599.815 319 599.509 319ZM611.763 319.2C610.59 319.2 609.516 319.007 608.543 318.62C607.57 318.22 606.73 317.667 606.023 316.96C605.33 316.24 604.79 315.393 604.403 314.42C604.016 313.433 603.823 312.353 603.823 311.18C603.823 310.007 604.016 308.933 604.403 307.96C604.79 306.987 605.33 306.147 606.023 305.44C606.73 304.72 607.57 304.167 608.543 303.78C609.516 303.38 610.59 303.18 611.763 303.18C612.936 303.18 614.003 303.38 614.963 303.78C615.936 304.167 616.776 304.72 617.483 305.44C618.19 306.147 618.736 306.987 619.123 307.96C619.51 308.933 619.703 310.007 619.703 311.18C619.703 312.353 619.51 313.433 619.123 314.42C618.736 315.393 618.19 316.24 617.483 316.96C616.776 317.667 615.936 318.22 614.963 318.62C614.003 319.007 612.936 319.2 611.763 319.2ZM611.763 317.32C612.63 317.32 613.423 317.167 614.143 316.86C614.876 316.54 615.51 316.107 616.043 315.56C616.576 315 616.983 314.347 617.263 313.6C617.556 312.853 617.703 312.047 617.703 311.18C617.703 310.313 617.556 309.507 617.263 308.76C616.983 308.013 616.576 307.367 616.043 306.82C615.51 306.26 614.876 305.827 614.143 305.52C613.423 305.213 612.63 305.06 611.763 305.06C610.896 305.06 610.096 305.213 609.363 305.52C608.643 305.827 608.016 306.26 607.483 306.82C606.963 307.367 606.556 308.013 606.263 308.76C605.97 309.507 605.823 310.313 605.823 311.18C605.823 312.047 605.97 312.853 606.263 313.6C606.556 314.347 606.963 315 607.483 315.56C608.016 316.107 608.643 316.54 609.363 316.86C610.096 317.167 610.896 317.32 611.763 317.32ZM623.981 319C623.688 319 623.441 318.9 623.241 318.7C623.054 318.5 622.961 318.253 622.961 317.96V304.42C622.961 304.113 623.054 303.867 623.241 303.68C623.441 303.48 623.688 303.38 623.981 303.38C624.301 303.38 624.568 303.507 624.781 303.76L633.501 315.36V304.42C633.501 304.113 633.601 303.867 633.801 303.68C634.001 303.48 634.248 303.38 634.541 303.38C634.848 303.38 635.094 303.48 635.281 303.68C635.468 303.867 635.561 304.113 635.561 304.42V317.96C635.561 318.253 635.468 318.5 635.281 318.7C635.094 318.9 634.848 319 634.541 319C634.408 319 634.261 318.973 634.101 318.92C633.954 318.853 633.834 318.76 633.741 318.64L625.021 307.04V317.96C625.021 318.253 624.921 318.5 624.721 318.7C624.534 318.9 624.288 319 623.981 319ZM638.943 319C638.569 319 638.283 318.84 638.083 318.52C637.883 318.2 637.863 317.86 638.023 317.5L643.643 304.08C643.843 303.613 644.169 303.38 644.623 303.38C645.103 303.38 645.429 303.613 645.603 304.08L651.243 317.54C651.389 317.913 651.363 318.253 651.163 318.56C650.976 318.853 650.689 319 650.303 319C650.103 319 649.909 318.947 649.723 318.84C649.549 318.72 649.423 318.56 649.343 318.36L644.383 306.04H644.943L639.903 318.36C639.809 318.573 639.669 318.733 639.483 318.84C639.309 318.947 639.129 319 638.943 319ZM640.003 315.56L640.803 313.84H648.643L649.443 315.56H640.003ZM654.645 319C654.352 319 654.105 318.9 653.905 318.7C653.718 318.5 653.625 318.253 653.625 317.96V304.42C653.625 304.127 653.725 303.88 653.925 303.68C654.125 303.48 654.365 303.38 654.645 303.38C654.938 303.38 655.185 303.48 655.385 303.68C655.585 303.88 655.685 304.127 655.685 304.42V316.92H662.925C663.218 316.92 663.465 317.02 663.665 317.22C663.865 317.42 663.965 317.667 663.965 317.96C663.965 318.253 663.865 318.5 663.665 318.7C663.465 318.9 663.218 319 662.925 319H654.645Z" fill="white"/>
<path d="M1079.55 275.49C1079.23 274.571 1078.75 273.709 1078.34 272.827C1064.82 243.375 1051.29 213.923 1037.75 184.489C1036.78 182.39 1036.13 179.765 1033.1 179.765C1030.07 179.746 1029.45 182.315 1028.47 184.452C1015.93 211.748 1003.39 239.026 990.871 266.322C989.401 269.49 987.838 272.621 986.592 275.883C985.457 278.827 987.336 281.433 990.257 281.283C992.601 281.17 993.512 279.502 994.349 277.627C997.884 269.884 1001.72 262.254 1004.95 254.38C1006.63 250.293 1009.06 249.112 1013.23 249.187C1025.21 249.412 1037.23 249.768 1049.17 249.093C1056.59 248.662 1060.58 251.062 1063.05 258.111C1065.54 265.197 1069.17 271.871 1072.37 278.714C1073.51 281.133 1075.5 281.939 1077.9 280.833C1080.28 279.764 1080.33 277.664 1079.55 275.49ZM1048.58 242.082C1043.42 242.157 1038.27 242.1 1033.12 242.1C1027.96 242.1 1022.79 242.157 1017.66 242.082C1013.38 242.007 1011.85 239.663 1013.62 235.764C1018.76 224.44 1024.04 213.192 1029.17 201.887C1029.99 200.068 1031.03 198.662 1033.08 198.625C1035.15 198.606 1036.19 200.069 1037.01 201.85C1042.18 213.154 1047.44 224.403 1052.58 235.726C1054.34 239.607 1052.78 242.007 1048.58 242.082Z" fill="#FAF4E6"/>
<path d="M889.556 274.14C875.721 244.009 861.867 213.915 848.05 183.803C847.157 181.832 846.32 179.823 843.791 179.767C841.02 179.692 840.184 181.869 839.235 183.972C832.559 198.596 825.846 213.221 819.151 227.826C812.029 243.333 804.906 258.84 797.766 274.327C796.52 277.031 796.017 279.603 799.365 280.973C802.136 282.081 803.772 280.391 804.869 277.951C808.626 269.672 812.494 261.449 816.157 253.132C817.403 250.298 819.244 249.153 822.275 249.171C836.632 249.265 850.988 249.246 865.326 249.19C868.171 249.171 870.031 250.204 871.165 252.907C872.727 256.643 874.512 260.285 876.204 263.983C878.473 268.94 880.705 273.914 883.029 278.852C883.977 280.898 885.67 281.705 887.846 281.086C889.687 280.56 890.542 279.208 890.561 276.881C890.319 276.205 890.021 275.135 889.556 274.14ZM858.854 242.094C853.703 242.169 848.533 242.113 843.382 242.094C838.38 242.094 833.359 242.169 828.338 242.094C824.079 242.019 822.536 239.672 824.302 235.748C829.379 224.391 834.605 213.089 839.756 201.769C840.556 199.986 841.671 198.653 843.791 198.709C845.93 198.765 846.915 200.211 847.715 201.975C852.829 213.164 857.999 224.334 863.038 235.542C864.916 239.71 863.391 242.038 858.854 242.113V242.094Z" fill="#FAF4E6"/>
<path d="M423.819 184.213C423.762 182.077 424.482 180.772 426.131 180.129C427.874 179.468 429.579 179.638 430.696 181.245C431.492 182.379 432.022 183.722 432.572 185.026C442.745 208.774 452.9 232.521 463.036 256.268C463.983 258.461 464.551 260.995 467.715 260.995C470.898 260.995 471.447 258.348 472.376 256.211C482.549 232.464 492.685 208.717 502.84 184.951C503.124 184.308 503.408 183.665 503.673 183.003C504.715 180.337 506.591 179.014 509.319 180.205C512.123 181.415 512.085 183.703 510.986 186.255C505.283 199.471 499.638 212.725 493.992 225.96C486.793 242.844 479.632 259.728 472.395 276.593C471.466 278.749 470.86 281.32 467.677 281.32C464.532 281.32 463.945 278.786 462.998 276.593C450.343 247.004 437.687 217.414 425.07 187.806C424.52 186.539 423.649 185.31 423.819 184.195V184.213Z" fill="#FAF4E6"/>
<path d="M162.097 230.376C162.153 242.138 152.948 251.927 141.731 252.024C130.234 252.142 121.066 242.49 121.085 230.356C121.104 218.34 130.048 209.021 141.545 209.06C152.948 209.079 162.041 218.497 162.097 230.376Z" fill="#D44AB5"/>
</svg>
