<svg width="126" height="42" viewBox="0 0 126 42" fill="none" xmlns="http://www.w3.org/2000/svg">
<g clip-path="url(#clip0_784_4331)">
<path d="M0.00422012 33.4946C1.07613 32.2645 2.05309 31.1405 3.03426 30.0209C5.42496 27.2865 7.81776 24.5542 10.2064 21.8198C10.2971 21.7157 10.4596 21.6116 10.4131 21.4693C10.3604 21.3036 10.1663 21.3822 10.0354 21.3694C5.36588 20.9275 1.34622 17.3921 0.459993 12.9496C-0.626687 7.49354 2.27042 2.93623 7.64896 1.61684C8.9171 1.30665 10.2042 1.18342 11.4998 1.17704C15.4857 1.15792 19.4716 1.17704 23.4575 1.16217C23.8584 1.16217 24.0314 1.24503 23.9998 1.68695C23.9618 2.22448 23.9787 2.76838 23.9956 3.30804C24.004 3.59911 23.8985 3.71809 23.6115 3.69259C23.4702 3.67984 23.3267 3.69047 23.1853 3.69259C18.8829 3.70322 14.5784 3.65222 10.2781 3.74783C8.00345 3.7967 5.9166 4.55519 4.34461 6.31437C2.40125 8.48786 2.19657 11.0268 3.23472 13.6167C4.50075 16.7739 6.95686 18.4842 10.3119 18.907C10.9428 18.9856 11.5737 18.9835 12.2046 18.9835C15.9689 18.9835 19.7333 18.9898 23.4976 18.975C23.8901 18.975 24.0019 19.0748 23.9977 19.4764C23.9787 21.8772 23.9892 24.278 23.9892 26.6788V27.1888L24.0694 27.2079C24.4535 26.3134 24.8417 25.4189 25.2215 24.5224C28.4647 16.8716 31.7078 9.21873 34.9426 1.56372C35.0649 1.27265 35.2063 1.14517 35.5334 1.16217C36.101 1.19192 36.6728 1.18554 37.2404 1.1643C37.616 1.15155 37.6624 1.25353 37.5147 1.59559C36.4407 4.10264 35.3836 6.61819 34.3201 9.12949C30.9609 17.0586 27.5932 24.9855 24.2509 32.921C24.0547 33.3884 23.8247 33.5456 23.3478 33.5031C22.9089 33.4628 22.4595 33.4606 22.0206 33.5031C21.5796 33.5456 21.5057 33.3671 21.5078 32.9656C21.5226 29.4663 21.5163 25.9692 21.5163 22.47C21.5163 21.8 21.1751 21.465 20.4929 21.465C18.3892 21.465 16.2854 21.4693 14.1817 21.4587C13.9053 21.4587 13.7133 21.5351 13.5297 21.7476C10.2612 25.5039 6.98429 29.2518 3.71792 33.0123C3.43095 33.3438 3.15032 33.535 2.67766 33.5074C1.83153 33.4585 0.981177 33.4946 0 33.4946H0.00422012Z" fill="#D44AB5"/>
<path d="M64.3273 8.47086C64.3273 10.0197 63.0001 11.3391 61.4408 11.3412C59.8371 11.3455 58.5584 10.0643 58.5542 8.44961C58.5479 6.8264 59.8139 5.53676 61.4155 5.53251C63.0275 5.52826 64.3273 6.83915 64.3273 8.47086Z" fill="white"/>
<path d="M61.466 8.11326e-06C56.8007 -0.00636574 53.049 3.74359 53.0469 8.4135C53.0448 13.1259 56.75 16.8716 61.4175 16.8759C66.0617 16.8801 69.8113 13.1387 69.8239 8.48786C69.8387 3.80733 66.0934 0.00425735 61.466 8.11326e-06ZM61.4449 15.6478C57.4337 15.6521 54.2475 12.4609 54.2433 8.43475C54.2391 4.43409 57.4105 1.22804 61.39 1.21529C65.4013 1.20042 68.617 4.40009 68.617 8.40288C68.617 12.4057 65.4477 15.6436 61.4449 15.6478Z" fill="white"/>
<path d="M81.2162 25.3828C82.3557 25.3828 83.493 25.3913 84.6324 25.3764C84.9257 25.3722 85.0312 25.4444 85.0671 25.7631C85.4975 29.7298 82.7545 33.4181 78.7306 34.1235C75.5613 34.678 72.9195 33.6433 71.0837 30.9727C69.2269 28.2723 69.0328 25.3616 70.7081 22.4976C73.1938 18.2505 78.9289 17.4091 82.5329 20.6938C82.6827 20.8319 83.0794 20.9785 82.7017 21.2611C82.4485 21.4502 82.3409 22.0323 81.7923 21.5351C77.971 18.0699 71.8856 20.0755 70.8622 25.1512C70.0055 29.4026 73.0398 32.4068 75.9263 32.9975C79.6463 33.7581 83.2123 31.3912 83.8833 27.7454C84.0339 26.9239 83.6948 26.5131 82.8663 26.5131C81.174 26.5131 79.4818 26.4919 77.7895 26.5259C77.2535 26.5365 77.3675 26.222 77.3485 25.9161C77.3295 25.5804 77.3379 25.3552 77.8 25.3701C78.9374 25.4062 80.0768 25.3828 81.2162 25.3828Z" fill="white"/>
<path d="M48.3161 11.1861C47.7949 10.587 47.8983 10.2407 48.6685 10.007C51.0233 9.29521 52.435 7.00913 52.0151 4.58281C51.7091 2.8045 50.1033 1.42563 48.0756 1.23866C46.1364 1.05807 44.1889 1.19617 42.2455 1.16217C41.6315 1.15155 41.469 1.33002 41.469 1.95678C41.4669 4.10265 41.4669 6.24851 41.4669 8.39438V13.8292C41.4669 14.2413 41.4627 14.6556 41.4711 15.0678C41.4795 15.4077 41.6737 15.6117 41.9986 15.6266C42.3299 15.6415 42.5219 15.4354 42.5683 15.1082C42.5852 14.9828 42.5768 14.8532 42.5768 14.7279C42.5768 13.4722 42.5725 12.2166 42.5768 10.9609C42.5789 10.417 42.7519 10.2449 43.2879 10.2385C44.0158 10.23 44.7438 10.2513 45.4697 10.2322C45.8495 10.2194 46.1217 10.3469 46.3728 10.638C47.7169 12.1996 49.08 13.7442 50.4325 15.2994C50.6878 15.5947 50.9621 15.7753 51.3272 15.4991C51.6247 15.276 51.593 14.9425 51.2554 14.5536C50.2764 13.4297 49.2931 12.3101 48.314 11.1861H48.3161ZM43.2224 9.13374C42.773 9.13374 42.5725 8.88516 42.5747 8.43899C42.581 7.51691 42.5768 6.59695 42.5768 5.67486C42.5768 4.80165 42.5725 3.92843 42.5768 3.05521C42.5789 2.44757 42.7371 2.28822 43.3258 2.28822C44.6362 2.2861 45.9486 2.28822 47.259 2.28822C47.7211 2.28822 48.1726 2.35408 48.6136 2.48369C51.2554 3.2613 51.4664 5.79597 50.403 7.39581C49.6687 8.50061 48.6052 9.07425 47.2949 9.11462C45.9381 9.15499 44.5792 9.13587 43.2203 9.13374H43.2224Z" fill="white"/>
<path d="M107.649 29.3516C107.026 28.6399 107.102 28.3339 107.989 28.062C108.761 27.824 109.423 27.4119 109.987 26.8361C112.253 24.5245 111.635 20.8617 108.776 19.6825C108.067 19.3893 107.322 19.2597 106.556 19.2576C104.88 19.2554 103.205 19.2512 101.53 19.2512C100.859 19.2533 100.713 19.4063 100.713 20.1053C100.711 22.2193 100.713 24.3333 100.713 26.4452C100.713 28.557 100.711 30.7688 100.713 32.9295C100.713 33.4564 100.897 33.6986 101.274 33.6986C101.652 33.6986 101.831 33.4585 101.834 32.9295C101.836 31.625 101.831 30.3226 101.836 29.0202C101.838 28.5103 102.013 28.3361 102.517 28.3318C103.26 28.3276 104.003 28.3488 104.745 28.3233C105.129 28.3106 105.391 28.4423 105.642 28.7334C106.955 30.2588 108.286 31.7694 109.609 33.2843C109.662 33.3438 109.712 33.4054 109.765 33.4649C110.016 33.739 110.314 33.8155 110.597 33.5584C110.881 33.3034 110.833 32.9954 110.588 32.717C109.609 31.5952 108.63 30.4734 107.649 29.3516ZM102.511 27.1973C102.011 27.1951 101.838 27.0167 101.836 26.5046C101.831 25.5974 101.834 24.6923 101.834 23.7873C101.834 22.8822 101.838 21.9452 101.831 21.0252C101.831 20.5939 102.034 20.3602 102.456 20.3645C103.973 20.3772 105.49 20.305 107.003 20.4091C107.286 20.4282 107.571 20.4728 107.841 20.5557C109.073 20.9296 109.995 21.6499 110.198 22.999C110.432 24.5564 109.786 25.7504 108.508 26.6066C107.917 27.0018 107.248 27.1888 106.539 27.193C105.195 27.2015 103.853 27.2015 102.511 27.1973Z" fill="white"/>
<path d="M64.496 28.1406C65.973 27.7475 67.0555 26.8573 67.7075 25.4699C68.79 23.1668 67.832 20.6194 65.5447 19.6803C64.9264 19.4254 64.2787 19.2767 63.6098 19.2703C61.7909 19.2554 59.972 19.2554 58.1532 19.2533C57.5792 19.2533 57.5054 19.334 57.5054 19.9268C57.5033 22.1045 57.5033 24.2823 57.5033 26.46C57.5033 28.6377 57.5096 30.8813 57.499 33.0909C57.4969 33.5031 57.632 33.7113 58.0709 33.7071C58.5013 33.7071 58.6089 33.4734 58.6089 33.0994C58.6047 31.7163 58.6132 30.3332 58.6047 28.9501C58.6005 28.5124 58.7672 28.3127 59.223 28.3254C60.0142 28.3467 60.8055 28.3445 61.5968 28.3233C61.9281 28.3148 62.1538 28.4253 62.3691 28.676C63.6224 30.1271 64.8885 31.5697 66.1503 33.0145C66.2959 33.1823 66.4372 33.3544 66.5955 33.5095C66.8487 33.7581 67.4037 33.7921 67.5851 33.5669C67.8404 33.2503 67.6315 33.0187 67.4248 32.7829C66.3465 31.5548 65.2725 30.3247 64.1985 29.0945C63.7554 28.5846 63.8419 28.3148 64.496 28.1406ZM63.0569 27.1994C61.793 27.1972 60.5291 27.1994 59.2652 27.1972C58.706 27.1972 58.611 27.1038 58.6089 26.528C58.6047 25.608 58.6068 24.6859 58.6068 23.766C58.6068 22.846 58.611 21.8921 58.6047 20.9551C58.6026 20.5706 58.7503 20.3517 59.1597 20.3602C60.738 20.3878 62.3205 20.2859 63.8967 20.4197C65.5194 20.5557 66.8192 21.6584 66.9985 23.016C67.2496 24.9005 65.9625 26.7065 64.093 27.0995C63.7511 27.1718 63.4051 27.2015 63.0569 27.1994Z" fill="white"/>
<path d="M76.5256 0.616158C77.9499 0.707516 79.3805 1.07508 80.4946 2.23512C81.0622 2.82576 81.3724 3.53751 81.4462 4.36186C81.4716 4.64231 81.3787 4.72942 81.115 4.69968C80.9588 4.68268 80.7984 4.6848 80.6402 4.69968C80.425 4.7188 80.3321 4.64231 80.3131 4.41498C80.2287 3.47377 79.697 2.81301 78.9015 2.40296C77.0953 1.4745 75.2532 1.46176 73.4449 2.39234C72.508 2.87463 71.951 3.66923 71.9742 4.76554C71.9974 5.88096 72.6515 6.57146 73.6116 7.00914C74.7679 7.53392 76.017 7.76338 77.2303 8.10544C77.9288 8.30303 78.6188 8.52399 79.2898 8.80444C82.0687 9.96661 82.0349 13.4807 80.0346 15.0062C78.0026 16.5572 74.2974 16.5805 72.2886 14.9935C71.4678 14.3433 70.9782 13.5105 70.8812 12.4503C70.8537 12.1422 70.9508 12.0466 71.2399 12.0891C71.3327 12.104 71.4319 12.104 71.5247 12.0891C71.8602 12.0317 71.9847 12.1613 72.0269 12.5076C72.1367 13.4021 72.6895 14.0204 73.4512 14.4071C75.2469 15.3185 77.0742 15.3164 78.8699 14.4113C79.8363 13.9226 80.3617 13.094 80.3363 11.9871C80.311 10.8844 79.6463 10.2194 78.7074 9.79026C77.5363 9.25486 76.2703 9.02965 75.0422 8.68546C74.2974 8.47725 73.5567 8.25416 72.8604 7.9121C70.6132 6.8073 70.1532 3.8647 71.9489 2.10976C72.9596 1.12182 74.7194 0.533297 76.5298 0.620407L76.5256 0.616158Z" fill="white"/>
<path d="M95.9233 14.6004C93.9779 10.3766 92.0282 6.1529 90.0827 1.92916C89.9498 1.64021 89.8506 1.32151 89.4412 1.33214C89.0593 1.34488 88.9707 1.6572 88.8462 1.92703C88.0296 3.69259 87.2193 5.4624 86.407 7.23008C85.2633 9.71588 84.1176 12.2017 82.976 14.6875C82.7692 15.14 82.8368 15.4269 83.1701 15.5798C83.4972 15.7307 83.7884 15.5905 83.9846 15.1655C84.529 13.9885 85.0755 12.8115 85.6073 11.628C85.7507 11.3093 85.9364 11.1203 86.3141 11.1224C88.4179 11.1309 90.5195 11.1288 92.6211 11.1224C92.9692 11.1224 93.1739 11.2669 93.3111 11.5834C93.5537 12.1507 93.8217 12.7073 94.0791 13.2682C94.3914 13.9439 94.6995 14.6195 95.016 15.293C95.1468 15.5692 95.3832 15.6924 95.6807 15.6159C95.936 15.5522 96.0774 15.3674 96.0795 15.0657C96.0879 14.9085 95.9951 14.7555 95.9233 14.6004ZM91.6315 10.1153C90.9056 10.1196 90.1798 10.1153 89.4539 10.1153C88.728 10.1153 88.0001 10.1217 87.2742 10.1132C86.6939 10.1068 86.4766 9.77537 86.7193 9.23997C87.4493 7.62738 88.1942 6.0233 88.9285 4.41283C89.0424 4.16638 89.1859 3.97729 89.4876 3.98791C89.7683 3.99853 89.8928 4.18125 89.9983 4.41071C90.7389 6.01905 91.488 7.62313 92.2244 9.23147C92.4776 9.78175 92.2539 10.1089 91.6315 10.1153Z" fill="white"/>
<path d="M98.8857 32.6363C96.9233 28.3679 94.9568 24.1017 92.9923 19.8333C92.8763 19.5826 92.7475 19.351 92.4184 19.3489C92.0639 19.3447 91.9331 19.589 91.8107 19.8567C91.4688 20.6067 91.1249 21.3545 90.7831 22.1003C89.1689 25.608 87.5568 29.1158 85.9447 32.6214C85.8519 32.8232 85.7358 33.0208 85.8371 33.2545C85.9257 33.4585 86.0692 33.586 86.3013 33.6051C86.6242 33.6327 86.793 33.4479 86.9153 33.1823C87.4619 31.9883 88.0147 30.7985 88.5527 29.6002C88.7089 29.256 88.9304 29.0967 89.3187 29.0988C91.3739 29.1094 93.4291 29.1115 95.4822 29.0988C95.8894 29.0945 96.1194 29.256 96.2777 29.6257C96.6026 30.3799 96.9592 31.1214 97.3032 31.8693C97.5226 32.3431 97.7378 32.819 97.9636 33.2907C98.1008 33.5753 98.3476 33.6625 98.6388 33.5817C98.9026 33.5116 99.0102 33.3076 99.0123 32.9826C99.0292 32.8891 98.9448 32.7659 98.8857 32.6363ZM94.5791 28.1045C93.8532 28.1193 93.1274 28.1087 92.4015 28.1087C91.6756 28.1087 90.9793 28.1172 90.2682 28.1066C89.6352 28.096 89.4221 27.7518 89.688 27.1675C90.4012 25.5995 91.127 24.0358 91.8402 22.4678C91.9584 22.2023 92.104 21.9941 92.4226 22.0004C92.718 22.0047 92.8552 22.2044 92.9691 22.4508C93.6928 24.0294 94.4272 25.6059 95.1488 27.1887C95.3999 27.7411 95.1825 28.0938 94.5791 28.1045Z" fill="white"/>
<path d="M46.6788 26.426C46.6788 24.2972 46.6788 22.1662 46.6788 20.0373C46.6788 19.402 46.8223 19.2576 47.4617 19.2576C49.9916 19.2576 52.5216 19.2554 55.0515 19.2576C55.6149 19.2576 55.9082 19.6336 55.6951 20.0628C55.5495 20.3581 55.2773 20.3602 55.003 20.3602C53.0111 20.3602 51.0192 20.3602 49.0273 20.3602C47.7908 20.3602 47.7761 20.373 47.7761 21.6031C47.7761 22.572 47.7761 23.5429 47.7761 24.5118C47.7761 25.2447 47.9132 25.3828 48.6222 25.3828C50.4411 25.3828 52.2578 25.3828 54.0767 25.3828C54.7287 25.3828 54.9946 25.5422 55.003 25.9331C55.0114 26.3304 54.7329 26.5089 54.0978 26.5089C52.2641 26.5089 50.4305 26.5089 48.5948 26.5089C47.9259 26.5089 47.7761 26.6512 47.7739 27.3099C47.7697 28.8035 47.7697 30.2971 47.7739 31.7928C47.7739 32.443 47.9428 32.6087 48.5927 32.6087C50.6647 32.6087 52.7347 32.6087 54.8068 32.6087C54.9334 32.6087 55.06 32.6087 55.1866 32.6108C55.5516 32.6214 55.7542 32.819 55.7415 33.1781C55.7289 33.5116 55.5263 33.6922 55.1824 33.6944C54.4227 33.6944 53.6652 33.6944 52.9056 33.6944C51.072 33.6944 49.2383 33.6944 47.4026 33.6944C46.8286 33.6944 46.6767 33.5414 46.6767 32.9592C46.6746 30.7815 46.6767 28.6038 46.6767 26.426H46.6788Z" fill="white"/>
<path d="M0.233598 41.9188C0.167711 41.9188 0.112306 41.8934 0.0673839 41.8426C0.0224613 41.7918 0 41.7292 0 41.6547V38.2172C0 38.1394 0.0224613 38.0768 0.0673839 38.0294C0.112306 37.9786 0.167711 37.9532 0.233598 37.9532H2.2641C2.33298 37.9532 2.38838 37.9769 2.43031 38.0243C2.47224 38.0683 2.4932 38.1275 2.4932 38.202C2.4932 38.2731 2.47224 38.3306 2.43031 38.3746C2.38838 38.4186 2.33298 38.4407 2.2641 38.4407H0.467195V39.6745H1.75647C1.82535 39.6745 1.88076 39.6982 1.92269 39.7456C1.96461 39.7896 1.98558 39.8471 1.98558 39.9182C1.98558 39.9893 1.96461 40.0485 1.92269 40.0959C1.88076 40.1399 1.82535 40.1619 1.75647 40.1619H0.467195V41.4313H2.2641C2.33298 41.4313 2.38838 41.4533 2.43031 41.4973C2.47224 41.5413 2.4932 41.5989 2.4932 41.67C2.4932 41.7444 2.47224 41.8054 2.43031 41.8527C2.38838 41.8968 2.33298 41.9188 2.2641 41.9188H0.233598Z" fill="white"/>
<path d="M4.25954 41.9695C4.06787 41.9695 3.88518 41.9357 3.71148 41.868C3.53778 41.8003 3.38654 41.7055 3.25777 41.5836C3.12899 41.4618 3.03465 41.3213 2.97475 41.1622C2.9448 41.0911 2.9448 41.0251 2.97475 40.9642C3.0077 40.9033 3.0616 40.8643 3.13647 40.8474C3.19038 40.8339 3.24279 40.844 3.2937 40.8779C3.34761 40.9083 3.38804 40.9557 3.41499 41.02C3.45093 41.1047 3.50933 41.1825 3.59019 41.2536C3.67405 41.3247 3.77437 41.3822 3.89117 41.4262C4.00797 41.4702 4.13076 41.4922 4.25954 41.4922C4.40329 41.4922 4.53506 41.4669 4.65486 41.4161C4.77765 41.3653 4.87648 41.2925 4.95135 41.1977C5.02622 41.0996 5.06365 40.9794 5.06365 40.8372C5.06365 40.6578 5.00076 40.497 4.87498 40.3549C4.75219 40.2127 4.54854 40.1247 4.26403 40.0908C3.89267 40.0502 3.60067 39.9267 3.38804 39.7202C3.17541 39.5137 3.06909 39.2581 3.06909 38.9535C3.06909 38.7301 3.12449 38.5405 3.2353 38.3848C3.34611 38.2291 3.49585 38.1106 3.68453 38.0294C3.8762 37.9481 4.08883 37.9075 4.32243 37.9075C4.50512 37.9075 4.66384 37.9363 4.79861 37.9938C4.93637 38.0514 5.05617 38.1309 5.15799 38.2325C5.25982 38.334 5.34816 38.4542 5.42303 38.593C5.46496 38.6674 5.48143 38.7385 5.47245 38.8062C5.46646 38.8705 5.43801 38.9213 5.3871 38.9586C5.33019 38.9992 5.2688 39.0076 5.20291 38.9839C5.13703 38.9603 5.08761 38.9162 5.05467 38.8519C5.00675 38.7538 4.94835 38.6708 4.87947 38.6031C4.81059 38.5354 4.72973 38.483 4.63689 38.4457C4.54405 38.4051 4.43474 38.3848 4.30895 38.3848C4.08734 38.3814 3.90166 38.4288 3.75191 38.527C3.60217 38.6218 3.5273 38.769 3.5273 38.9687C3.5273 39.0703 3.54976 39.1684 3.59468 39.2632C3.6426 39.3546 3.72795 39.4342 3.85074 39.5019C3.97653 39.5696 4.15622 39.6169 4.38981 39.644C4.7462 39.6846 5.02322 39.8082 5.22088 40.0147C5.42154 40.2178 5.52186 40.4869 5.52186 40.822C5.52186 41.015 5.48593 41.1825 5.41405 41.3247C5.34517 41.4669 5.25083 41.587 5.13104 41.6852C5.01424 41.78 4.87947 41.8511 4.72673 41.8984C4.57699 41.9458 4.42126 41.9695 4.25954 41.9695Z" fill="white"/>
<path d="M7.09612 41.9188C7.03023 41.9188 6.97483 41.8934 6.92991 41.8426C6.88498 41.7918 6.86252 41.7292 6.86252 41.6547V37.9532H7.32972V41.6547C7.32972 41.7292 7.30726 41.7918 7.26233 41.8426C7.21741 41.8934 7.16201 41.9188 7.09612 41.9188ZM5.89219 38.4407C5.8293 38.4407 5.77689 38.4186 5.73496 38.3746C5.69603 38.3273 5.67657 38.268 5.67657 38.1969C5.67657 38.1258 5.69603 38.0683 5.73496 38.0243C5.77689 37.9769 5.8293 37.9532 5.89219 37.9532H8.29555C8.35844 37.9532 8.40936 37.9769 8.44829 38.0243C8.49022 38.0683 8.51118 38.1258 8.51118 38.1969C8.51118 38.268 8.49022 38.3273 8.44829 38.3746C8.40936 38.4186 8.35844 38.4407 8.29555 38.4407H5.89219Z" fill="white"/>
<path d="M10.4974 42C10.2099 42 9.95529 41.9408 9.73367 41.8223C9.51205 41.7004 9.33835 41.5329 9.21257 41.3196C9.08978 41.1064 9.02839 40.8626 9.02839 40.5884V38.2172C9.02839 38.1394 9.05085 38.0768 9.09577 38.0294C9.14069 37.9786 9.1961 37.9532 9.26198 37.9532C9.33087 37.9532 9.38627 37.9786 9.4282 38.0294C9.47312 38.0768 9.49558 38.1394 9.49558 38.2172V40.5884C9.49558 40.7712 9.53751 40.9337 9.62137 41.0759C9.70822 41.2147 9.82651 41.3247 9.97625 41.4059C10.129 41.4838 10.3027 41.5227 10.4974 41.5227C10.686 41.5227 10.8522 41.4838 10.996 41.4059C11.1427 41.3247 11.2565 41.2147 11.3374 41.0759C11.4213 40.9337 11.4632 40.7712 11.4632 40.5884V38.2172C11.4632 38.1394 11.4857 38.0768 11.5306 38.0294C11.5755 37.9786 11.6309 37.9532 11.6968 37.9532C11.7657 37.9532 11.8211 37.9786 11.863 38.0294C11.9049 38.0768 11.9259 38.1394 11.9259 38.2172V40.5884C11.9259 40.8626 11.8645 41.1064 11.7417 41.3196C11.6219 41.5329 11.4542 41.7004 11.2386 41.8223C11.023 41.9408 10.7759 42 10.4974 42Z" fill="white"/>
<path d="M13.0567 41.9188C12.9908 41.9188 12.9354 41.8934 12.8905 41.8426C12.8456 41.7918 12.8231 41.7292 12.8231 41.6547V38.2172C12.8231 38.1394 12.8456 38.0768 12.8905 38.0294C12.9354 37.9786 12.9908 37.9532 13.0567 37.9532H13.8698C14.1274 37.9532 14.361 38.0023 14.5706 38.1005C14.7832 38.1952 14.9674 38.3323 15.1232 38.5117C15.2789 38.6878 15.3987 38.8959 15.4825 39.1363C15.5664 39.3766 15.6083 39.6423 15.6083 39.9334C15.6083 40.2246 15.5664 40.492 15.4825 40.7357C15.3987 40.976 15.2789 41.1859 15.1232 41.3653C14.9674 41.5413 14.7832 41.6784 14.5706 41.7766C14.361 41.8714 14.1274 41.9188 13.8698 41.9188H13.0567ZM13.2903 41.4516H13.8698C14.1214 41.4516 14.343 41.3873 14.5347 41.2587C14.7293 41.1267 14.8821 40.9473 14.9929 40.7205C15.1037 40.4903 15.1591 40.2279 15.1591 39.9334C15.1591 39.6356 15.1037 39.3732 14.9929 39.1464C14.8821 38.9196 14.7293 38.7419 14.5347 38.6133C14.343 38.4847 14.1214 38.4203 13.8698 38.4203H13.2903V41.4516Z" fill="white"/>
<path d="M16.5751 41.9188C16.5092 41.9188 16.4538 41.8934 16.4089 41.8426C16.3639 41.7918 16.3415 41.7292 16.3415 41.6547V38.2172C16.3415 38.1394 16.3639 38.0768 16.4089 38.0294C16.4538 37.9786 16.5092 37.9532 16.5751 37.9532C16.6439 37.9532 16.6994 37.9786 16.7413 38.0294C16.7862 38.0768 16.8087 38.1394 16.8087 38.2172V41.6547C16.8087 41.7292 16.7862 41.7918 16.7413 41.8426C16.6994 41.8934 16.6439 41.9188 16.5751 41.9188Z" fill="white"/>
<path d="M19.3275 41.9695C19.064 41.9695 18.8229 41.9204 18.6043 41.8223C18.3856 41.7207 18.197 41.5803 18.0382 41.4008C17.8825 41.2181 17.7612 41.0031 17.6744 40.756C17.5875 40.5055 17.5441 40.2313 17.5441 39.9334C17.5441 39.6356 17.5875 39.3631 17.6744 39.116C17.7612 38.8689 17.8825 38.6556 18.0382 38.4762C18.197 38.2934 18.3856 38.1529 18.6043 38.0548C18.8229 37.9532 19.064 37.9024 19.3275 37.9024C19.5911 37.9024 19.8307 37.9532 20.0463 38.0548C20.2649 38.1529 20.4536 38.2934 20.6123 38.4762C20.771 38.6556 20.8938 38.8689 20.9807 39.116C21.0675 39.3631 21.111 39.6356 21.111 39.9334C21.111 40.2313 21.0675 40.5055 20.9807 40.756C20.8938 41.0031 20.771 41.2181 20.6123 41.4008C20.4536 41.5803 20.2649 41.7207 20.0463 41.8223C19.8307 41.9204 19.5911 41.9695 19.3275 41.9695ZM19.3275 41.4922C19.5222 41.4922 19.7004 41.4533 19.8621 41.3755C20.0268 41.2942 20.1691 41.1842 20.2889 41.0454C20.4087 40.9033 20.5 40.7374 20.5629 40.5478C20.6288 40.3583 20.6617 40.1535 20.6617 39.9334C20.6617 39.7134 20.6288 39.5086 20.5629 39.3191C20.5 39.1295 20.4087 38.9653 20.2889 38.8265C20.1691 38.6844 20.0268 38.5744 19.8621 38.4965C19.7004 38.4187 19.5222 38.3797 19.3275 38.3797C19.1329 38.3797 18.9532 38.4187 18.7885 38.4965C18.6267 38.5744 18.486 38.6844 18.3662 38.8265C18.2494 38.9653 18.158 39.1295 18.0922 39.3191C18.0263 39.5086 17.9933 39.7134 17.9933 39.9334C17.9933 40.1535 18.0263 40.3583 18.0922 40.5478C18.158 40.7374 18.2494 40.9033 18.3662 41.0454C18.486 41.1842 18.6267 41.2942 18.7885 41.3755C18.9532 41.4533 19.1329 41.4922 19.3275 41.4922Z" fill="white"/>
<path d="M24.21 41.9188C24.1471 41.9188 24.0932 41.8934 24.0483 41.8426C24.0034 41.7918 23.9809 41.7292 23.9809 41.6547V40.4717L22.7815 38.3645C22.7425 38.2934 22.7276 38.2274 22.7366 38.1665C22.7455 38.1022 22.771 38.0514 22.8129 38.0141C22.8578 37.9735 22.9088 37.9532 22.9657 37.9532C23.0166 37.9532 23.057 37.9668 23.0869 37.9938C23.1169 38.0175 23.1453 38.0531 23.1723 38.1005L24.3133 40.1467H24.1336L25.2926 38.0801C25.3166 38.0395 25.3451 38.0091 25.378 37.9888C25.4109 37.9651 25.4514 37.9532 25.4993 37.9532C25.5532 37.9532 25.5981 37.9752 25.6341 38.0192C25.67 38.0598 25.691 38.1123 25.6969 38.1766C25.7029 38.2376 25.688 38.3002 25.652 38.3645L24.4436 40.4717V41.6547C24.4436 41.7292 24.4211 41.7918 24.3762 41.8426C24.3313 41.8934 24.2759 41.9188 24.21 41.9188Z" fill="white"/>
<path d="M27.718 41.9188C27.6521 41.9188 27.5967 41.8934 27.5518 41.8426C27.5068 41.7918 27.4844 41.7292 27.4844 41.6547V38.2172C27.4844 38.1394 27.5068 38.0768 27.5518 38.0294C27.5967 37.9786 27.6521 37.9532 27.718 37.9532H29.7485C29.8174 37.9532 29.8728 37.9769 29.9147 38.0243C29.9566 38.0683 29.9776 38.1275 29.9776 38.202C29.9776 38.2731 29.9566 38.3306 29.9147 38.3746C29.8728 38.4186 29.8174 38.4407 29.7485 38.4407H27.9516V39.6745H29.2409C29.3097 39.6745 29.3651 39.6982 29.4071 39.7456C29.449 39.7896 29.47 39.8471 29.47 39.9182C29.47 39.9893 29.449 40.0485 29.4071 40.0959C29.3651 40.1399 29.3097 40.1619 29.2409 40.1619H27.9516V41.4313H29.7485C29.8174 41.4313 29.8728 41.4533 29.9147 41.4973C29.9566 41.5413 29.9776 41.5989 29.9776 41.67C29.9776 41.7444 29.9566 41.8054 29.9147 41.8527C29.8728 41.8968 29.8174 41.9188 29.7485 41.9188H27.718Z" fill="white"/>
<path d="M31.7439 41.9695C31.5522 41.9695 31.3696 41.9357 31.1959 41.868C31.0222 41.8003 30.8709 41.7055 30.7421 41.5836C30.6134 41.4618 30.519 41.3213 30.4591 41.1622C30.4292 41.0911 30.4292 41.0251 30.4591 40.9642C30.4921 40.9033 30.546 40.8643 30.6209 40.8474C30.6748 40.8339 30.7272 40.844 30.7781 40.8779C30.832 40.9083 30.8724 40.9557 30.8994 41.02C30.9353 41.1047 30.9937 41.1825 31.0746 41.2536C31.1584 41.3247 31.2588 41.3822 31.3756 41.4262C31.4923 41.4702 31.6151 41.4922 31.7439 41.4922C31.8877 41.4922 32.0194 41.4669 32.1392 41.4161C32.262 41.3653 32.3609 41.2925 32.4357 41.1977C32.5106 41.0996 32.548 40.9794 32.548 40.8372C32.548 40.6578 32.4851 40.497 32.3594 40.3549C32.2366 40.2127 32.0329 40.1247 31.7484 40.0908C31.377 40.0502 31.0851 39.9267 30.8724 39.7202C30.6598 39.5137 30.5535 39.2581 30.5535 38.9535C30.5535 38.7301 30.6089 38.5405 30.7197 38.3848C30.8305 38.2291 30.9802 38.1106 31.1689 38.0294C31.3606 37.9481 31.5732 37.9075 31.8068 37.9075C31.9895 37.9075 32.1482 37.9363 32.283 37.9938C32.4207 38.0514 32.5405 38.1309 32.6424 38.2325C32.7442 38.334 32.8325 38.4542 32.9074 38.593C32.9493 38.6674 32.9658 38.7385 32.9568 38.8062C32.9508 38.8705 32.9224 38.9213 32.8715 38.9586C32.8146 38.9992 32.7532 39.0076 32.6873 38.9839C32.6214 38.9603 32.572 38.9162 32.539 38.8519C32.4911 38.7538 32.4327 38.6708 32.3638 38.6031C32.295 38.5354 32.2141 38.483 32.1213 38.4457C32.0284 38.4051 31.9191 38.3848 31.7933 38.3848C31.5717 38.3814 31.386 38.4288 31.2363 38.527C31.0865 38.6218 31.0117 38.769 31.0117 38.9687C31.0117 39.0703 31.0341 39.1684 31.0791 39.2632C31.127 39.3546 31.2123 39.4342 31.3351 39.5019C31.4609 39.5696 31.6406 39.6169 31.8742 39.644C32.2306 39.6846 32.5076 39.8082 32.7053 40.0147C32.9059 40.2178 33.0062 40.4869 33.0062 40.822C33.0062 41.015 32.9703 41.1825 32.8984 41.3247C32.8295 41.4669 32.7352 41.587 32.6154 41.6852C32.4986 41.78 32.3638 41.8511 32.2111 41.8984C32.0614 41.9458 31.9056 41.9695 31.7439 41.9695Z" fill="white"/>
<path d="M35.2949 41.9695C35.0524 41.9695 34.8248 41.9188 34.6121 41.8172C34.4025 41.7123 34.2183 41.5684 34.0596 41.3856C33.9038 41.1994 33.781 40.9828 33.6912 40.7357C33.6044 40.4886 33.5609 40.2212 33.5609 39.9334C33.5609 39.6491 33.6044 39.3851 33.6912 39.1414C33.781 38.8942 33.9038 38.6793 34.0596 38.4965C34.2183 38.3103 34.4025 38.1648 34.6121 38.0598C34.8218 37.9549 35.0494 37.9024 35.2949 37.9024C35.5255 37.9024 35.7232 37.9363 35.8879 38.004C36.0556 38.0717 36.2233 38.1834 36.3911 38.3391C36.415 38.3594 36.433 38.3814 36.445 38.4051C36.4599 38.4254 36.4689 38.4474 36.4719 38.4711C36.4779 38.4914 36.4809 38.5168 36.4809 38.5473C36.4809 38.6116 36.4599 38.6658 36.418 38.7098C36.3791 38.7504 36.3312 38.7741 36.2743 38.7808C36.2174 38.7842 36.1619 38.7622 36.108 38.7148C35.9972 38.6065 35.8819 38.5236 35.7621 38.466C35.6453 38.4085 35.4896 38.3797 35.2949 38.3797C35.1182 38.3797 34.952 38.4203 34.7963 38.5016C34.6406 38.5828 34.5028 38.6945 34.383 38.8367C34.2662 38.9789 34.1749 39.1447 34.109 39.3343C34.0431 39.5205 34.0102 39.7202 34.0102 39.9334C34.0102 40.1501 34.0431 40.3532 34.109 40.5427C34.1749 40.7289 34.2662 40.8931 34.383 41.0353C34.5028 41.1774 34.6406 41.2891 34.7963 41.3704C34.952 41.4482 35.1182 41.4872 35.2949 41.4872C35.4477 41.4872 35.5914 41.4584 35.7262 41.4008C35.864 41.3399 35.9957 41.257 36.1215 41.152C36.1754 41.108 36.2278 41.0894 36.2787 41.0962C36.3327 41.0996 36.3776 41.1233 36.4135 41.1673C36.4494 41.2079 36.4674 41.2654 36.4674 41.3399C36.4674 41.3738 36.4614 41.4076 36.4495 41.4415C36.4375 41.4719 36.4195 41.5007 36.3955 41.5278C36.2338 41.6733 36.0601 41.7834 35.8744 41.8578C35.6918 41.9323 35.4986 41.9695 35.2949 41.9695Z" fill="white"/>
<path d="M38.6836 42C38.3961 42 38.1416 41.9408 37.92 41.8223C37.6983 41.7004 37.5246 41.5329 37.3989 41.3196C37.2761 41.1064 37.2147 40.8626 37.2147 40.5884V38.2172C37.2147 38.1394 37.2371 38.0768 37.2821 38.0294C37.327 37.9786 37.3824 37.9532 37.4483 37.9532C37.5172 37.9532 37.5726 37.9786 37.6145 38.0294C37.6594 38.0768 37.6819 38.1394 37.6819 38.2172V40.5884C37.6819 40.7712 37.7238 40.9337 37.8077 41.0759C37.8945 41.2147 38.0128 41.3247 38.1625 41.4059C38.3153 41.4838 38.489 41.5227 38.6836 41.5227C38.8723 41.5227 39.0385 41.4838 39.1823 41.4059C39.329 41.3247 39.4428 41.2147 39.5237 41.0759C39.6076 40.9337 39.6495 40.7712 39.6495 40.5884V38.2172C39.6495 38.1394 39.6719 38.0768 39.7169 38.0294C39.7618 37.9786 39.8172 37.9532 39.8831 37.9532C39.952 37.9532 40.0074 37.9786 40.0493 38.0294C40.0912 38.0768 40.1122 38.1394 40.1122 38.2172V40.5884C40.1122 40.8626 40.0508 41.1064 39.928 41.3196C39.8082 41.5329 39.6405 41.7004 39.4249 41.8223C39.2092 41.9408 38.9622 42 38.6836 42Z" fill="white"/>
<path d="M41.243 41.9188C41.1771 41.9188 41.1217 41.8934 41.0768 41.8426C41.0319 41.7918 41.0094 41.7292 41.0094 41.6547V38.2172C41.0094 38.1394 41.0319 38.0768 41.0768 38.0294C41.1217 37.9786 41.1771 37.9532 41.243 37.9532H43.2735C43.3424 37.9532 43.3978 37.9769 43.4397 38.0243C43.4817 38.0683 43.5026 38.1275 43.5026 38.202C43.5026 38.2731 43.4817 38.3306 43.4397 38.3746C43.3978 38.4186 43.3424 38.4407 43.2735 38.4407H41.4766V39.6745H42.7659C42.8348 39.6745 42.8902 39.6982 42.9321 39.7456C42.974 39.7896 42.995 39.8471 42.995 39.9182C42.995 39.9893 42.974 40.0485 42.9321 40.0959C42.8902 40.1399 42.8348 40.1619 42.7659 40.1619H41.4766V41.4313H43.2735C43.3424 41.4313 43.3978 41.4533 43.4397 41.4973C43.4817 41.5413 43.5026 41.5989 43.5026 41.67C43.5026 41.7444 43.4817 41.8054 43.4397 41.8527C43.3978 41.8968 43.3424 41.9188 43.2735 41.9188H41.243Z" fill="white"/>
<path d="M44.384 41.9188C44.3181 41.9188 44.2627 41.8934 44.2178 41.8426C44.1758 41.7918 44.1549 41.7292 44.1549 41.6547V38.2172C44.1549 38.1428 44.1773 38.0801 44.2223 38.0294C44.2672 37.9786 44.3211 37.9532 44.384 37.9532C44.4499 37.9532 44.5053 37.9786 44.5502 38.0294C44.5951 38.0801 44.6176 38.1428 44.6176 38.2172V41.3907H46.2438C46.3097 41.3907 46.3651 41.4161 46.41 41.4669C46.4549 41.5176 46.4774 41.5803 46.4774 41.6547C46.4774 41.7292 46.4549 41.7918 46.41 41.8426C46.3651 41.8934 46.3097 41.9188 46.2438 41.9188H44.384Z" fill="white"/>
<path d="M46.8979 41.9188C46.814 41.9188 46.7496 41.8781 46.7047 41.7969C46.6598 41.7157 46.6553 41.6293 46.6912 41.5379L47.9535 38.1309C47.9985 38.0124 48.0718 37.9532 48.1736 37.9532C48.2815 37.9532 48.3548 38.0124 48.3938 38.1309L49.6606 41.5481C49.6935 41.6429 49.6875 41.7292 49.6426 41.8071C49.6007 41.8815 49.5363 41.9188 49.4495 41.9188C49.4045 41.9188 49.3611 41.9052 49.3192 41.8781C49.2802 41.8477 49.2518 41.8071 49.2338 41.7563L48.1197 38.6285H48.2455L47.1135 41.7563C47.0925 41.8104 47.0611 41.8511 47.0191 41.8781C46.9802 41.9052 46.9398 41.9188 46.8979 41.9188ZM47.1359 41.0454L47.3156 40.6088H49.0766L49.2563 41.0454H47.1359Z" fill="white"/>
<path d="M51.7454 41.9188C51.6795 41.9188 51.6241 41.8934 51.5792 41.8426C51.5343 41.7918 51.5118 41.7292 51.5118 41.6547V38.2172C51.5118 38.1394 51.5343 38.0768 51.5792 38.0294C51.6241 37.9786 51.6795 37.9532 51.7454 37.9532H52.5585C52.8161 37.9532 53.0497 38.0023 53.2593 38.1005C53.4719 38.1952 53.6561 38.3323 53.8119 38.5117C53.9676 38.6878 54.0874 38.8959 54.1712 39.1363C54.2551 39.3766 54.297 39.6423 54.297 39.9334C54.297 40.2246 54.2551 40.492 54.1712 40.7357C54.0874 40.976 53.9676 41.1859 53.8119 41.3653C53.6561 41.5413 53.4719 41.6784 53.2593 41.7766C53.0497 41.8714 52.8161 41.9188 52.5585 41.9188H51.7454ZM51.979 41.4516H52.5585C52.8101 41.4516 53.0317 41.3873 53.2234 41.2587C53.418 41.1267 53.5708 40.9473 53.6816 40.7205C53.7924 40.4903 53.8478 40.2279 53.8478 39.9334C53.8478 39.6356 53.7924 39.3732 53.6816 39.1464C53.5708 38.9196 53.418 38.7419 53.2234 38.6133C53.0317 38.4847 52.8101 38.4203 52.5585 38.4203H51.979V41.4516Z" fill="white"/>
<path d="M55.2638 41.9188C55.1979 41.9188 55.1425 41.8934 55.0976 41.8426C55.0526 41.7918 55.0302 41.7292 55.0302 41.6547V38.2172C55.0302 38.1394 55.0526 38.0768 55.0976 38.0294C55.1425 37.9786 55.1979 37.9532 55.2638 37.9532H57.2943C57.3631 37.9532 57.4186 37.9769 57.4605 38.0243C57.5024 38.0683 57.5234 38.1275 57.5234 38.202C57.5234 38.2731 57.5024 38.3306 57.4605 38.3746C57.4186 38.4186 57.3631 38.4407 57.2943 38.4407H55.4974V39.6745H56.7866C56.8555 39.6745 56.9109 39.6982 56.9529 39.7456C56.9948 39.7896 57.0157 39.8471 57.0157 39.9182C57.0157 39.9893 56.9948 40.0485 56.9529 40.0959C56.9109 40.1399 56.8555 40.1619 56.7866 40.1619H55.4974V41.4313H57.2943C57.3631 41.4313 57.4186 41.4533 57.4605 41.4973C57.5024 41.5413 57.5234 41.5989 57.5234 41.67C57.5234 41.7444 57.5024 41.8054 57.4605 41.8527C57.4186 41.8968 57.3631 41.9188 57.2943 41.9188H55.2638Z" fill="white"/>
<path d="M59.7253 41.9188C59.6594 41.9188 59.604 41.8934 59.5591 41.8426C59.5142 41.7918 59.4917 41.7292 59.4917 41.6547V38.2172C59.4917 38.1394 59.5142 38.0768 59.5591 38.0294C59.604 37.9786 59.6594 37.9532 59.7253 37.9532C59.8152 37.9532 59.884 38.0006 59.932 38.0954L61.338 41.279H61.1943L62.5644 38.0954C62.6123 38.0006 62.6812 37.9532 62.7711 37.9532C62.837 37.9532 62.8924 37.9786 62.9373 38.0294C62.9822 38.0768 63.0047 38.1394 63.0047 38.2172V41.6547C63.0047 41.7292 62.9807 41.7918 62.9328 41.8426C62.8879 41.8934 62.834 41.9188 62.7711 41.9188C62.7052 41.9188 62.6498 41.8934 62.6049 41.8426C62.5599 41.7918 62.5375 41.7292 62.5375 41.6547V38.9484L62.6273 38.923L61.4503 41.6344C61.3994 41.7224 61.3321 41.7664 61.2482 41.7664C61.1494 41.7664 61.0775 41.714 61.0326 41.609L59.8691 38.9738L59.9589 38.9484V41.6547C59.9589 41.7292 59.9365 41.7918 59.8915 41.8426C59.8466 41.8934 59.7912 41.9188 59.7253 41.9188Z" fill="white"/>
<path d="M63.7658 41.9188C63.6819 41.9188 63.6175 41.8781 63.5726 41.7969C63.5277 41.7157 63.5232 41.6293 63.5591 41.5379L64.8214 38.1309C64.8664 38.0124 64.9397 37.9532 65.0415 37.9532C65.1494 37.9532 65.2227 38.0124 65.2617 38.1309L66.5285 41.5481C66.5614 41.6429 66.5555 41.7292 66.5105 41.8071C66.4686 41.8815 66.4042 41.9188 66.3174 41.9188C66.2724 41.9188 66.229 41.9052 66.1871 41.8781C66.1481 41.8477 66.1197 41.8071 66.1017 41.7563L64.9876 38.6285H65.1134L63.9814 41.7563C63.9604 41.8104 63.929 41.8511 63.887 41.8781C63.8481 41.9052 63.8077 41.9188 63.7658 41.9188ZM64.0038 41.0454L64.1835 40.6088H65.9445L66.1242 41.0454H64.0038Z" fill="white"/>
<path d="M69.824 41.8375L68.8851 40.7763C68.8372 40.7222 68.8132 40.6629 68.8132 40.5986C68.8132 40.5309 68.8372 40.47 68.8851 40.4158C68.933 40.3616 68.9854 40.3346 69.0423 40.3346C69.1022 40.3346 69.1561 40.3616 69.2041 40.4158L70.1429 41.4821C70.1879 41.5362 70.2103 41.5955 70.2103 41.6598C70.2133 41.7241 70.1909 41.7834 70.1429 41.8375C70.095 41.8917 70.0411 41.9188 69.9812 41.9188C69.9243 41.9188 69.8719 41.8917 69.824 41.8375ZM68.5976 41.9695C68.3341 41.9695 68.093 41.9204 67.8743 41.8223C67.6557 41.7207 67.467 41.5803 67.3083 41.4008C67.1526 41.2181 67.0313 41.0031 66.9444 40.756C66.8576 40.5055 66.8142 40.2313 66.8142 39.9334C66.8142 39.6356 66.8576 39.3631 66.9444 39.116C67.0313 38.8689 67.1526 38.6556 67.3083 38.4762C67.467 38.2934 67.6557 38.1529 67.8743 38.0548C68.093 37.9532 68.3341 37.9024 68.5976 37.9024C68.8611 37.9024 69.1007 37.9532 69.3164 38.0548C69.535 38.1529 69.7237 38.2934 69.8824 38.4762C70.0411 38.6556 70.1639 38.8689 70.2507 39.116C70.3376 39.3631 70.381 39.6356 70.381 39.9334C70.381 40.2313 70.3376 40.5055 70.2507 40.756C70.1639 41.0031 70.0411 41.2181 69.8824 41.4008C69.7237 41.5803 69.535 41.7207 69.3164 41.8223C69.1007 41.9204 68.8611 41.9695 68.5976 41.9695ZM68.5976 41.4922C68.7923 41.4922 68.9705 41.4533 69.1322 41.3755C69.2969 41.2942 69.4391 41.1842 69.5589 41.0454C69.6787 40.9033 69.7701 40.7374 69.833 40.5478C69.8989 40.3583 69.9318 40.1535 69.9318 39.9334C69.9318 39.7134 69.8989 39.5086 69.833 39.3191C69.7701 39.1295 69.6787 38.9653 69.5589 38.8265C69.4391 38.6844 69.2969 38.5744 69.1322 38.4965C68.9705 38.4187 68.7923 38.3797 68.5976 38.3797C68.4029 38.3797 68.2232 38.4187 68.0585 38.4965C67.8968 38.5744 67.7561 38.6844 67.6363 38.8265C67.5195 38.9653 67.4281 39.1295 67.3622 39.3191C67.2963 39.5086 67.2634 39.7134 67.2634 39.9334C67.2634 40.1535 67.2963 40.3583 67.3622 40.5478C67.4281 40.7374 67.5195 40.9033 67.6363 41.0454C67.7561 41.1842 67.8968 41.2942 68.0585 41.3755C68.2232 41.4533 68.4029 41.4922 68.5976 41.4922Z" fill="white"/>
<path d="M72.5818 42C72.2943 42 72.0397 41.9408 71.8181 41.8223C71.5965 41.7004 71.4228 41.5329 71.297 41.3196C71.1742 41.1064 71.1128 40.8626 71.1128 40.5884V38.2172C71.1128 38.1394 71.1353 38.0768 71.1802 38.0294C71.2251 37.9786 71.2805 37.9532 71.3464 37.9532C71.4153 37.9532 71.4707 37.9786 71.5126 38.0294C71.5575 38.0768 71.58 38.1394 71.58 38.2172V40.5884C71.58 40.7712 71.6219 40.9337 71.7058 41.0759C71.7926 41.2147 71.9109 41.3247 72.0607 41.4059C72.2134 41.4838 72.3871 41.5227 72.5818 41.5227C72.7705 41.5227 72.9367 41.4838 73.0804 41.4059C73.2272 41.3247 73.341 41.2147 73.4218 41.0759C73.5057 40.9337 73.5476 40.7712 73.5476 40.5884V38.2172C73.5476 38.1394 73.5701 38.0768 73.615 38.0294C73.6599 37.9786 73.7153 37.9532 73.7812 37.9532C73.8501 37.9532 73.9055 37.9786 73.9474 38.0294C73.9893 38.0768 74.0103 38.1394 74.0103 38.2172V40.5884C74.0103 40.8626 73.9489 41.1064 73.8261 41.3196C73.7063 41.5329 73.5386 41.7004 73.323 41.8223C73.1074 41.9408 72.8603 42 72.5818 42Z" fill="white"/>
<path d="M75.1411 41.9188C75.0752 41.9188 75.0198 41.8934 74.9749 41.8426C74.93 41.7918 74.9075 41.7292 74.9075 41.6547V38.2172C74.9075 38.1394 74.93 38.0768 74.9749 38.0294C75.0198 37.9786 75.0752 37.9532 75.1411 37.9532C75.21 37.9532 75.2654 37.9786 75.3074 38.0294C75.3523 38.0768 75.3747 38.1394 75.3747 38.2172V41.6547C75.3747 41.7292 75.3523 41.7918 75.3074 41.8426C75.2654 41.8934 75.21 41.9188 75.1411 41.9188Z" fill="white"/>
<path d="M76.501 41.9188C76.4351 41.9188 76.3797 41.8934 76.3348 41.8426C76.2928 41.7918 76.2719 41.7292 76.2719 41.6547V38.2172C76.2719 38.1428 76.2943 38.0801 76.3393 38.0294C76.3842 37.9786 76.4381 37.9532 76.501 37.9532C76.5669 37.9532 76.6223 37.9786 76.6672 38.0294C76.7121 38.0801 76.7346 38.1428 76.7346 38.2172V41.3907H78.3608C78.4267 41.3907 78.4821 41.4161 78.527 41.4669C78.5719 41.5176 78.5944 41.5803 78.5944 41.6547C78.5944 41.7292 78.5719 41.7918 78.527 41.8426C78.4821 41.8934 78.4267 41.9188 78.3608 41.9188H76.501Z" fill="white"/>
<path d="M79.3832 41.9188C79.3173 41.9188 79.2619 41.8934 79.217 41.8426C79.1751 41.7918 79.1541 41.7292 79.1541 41.6547V38.2172C79.1541 38.1428 79.1766 38.0801 79.2215 38.0294C79.2664 37.9786 79.3203 37.9532 79.3832 37.9532C79.4491 37.9532 79.5045 37.9786 79.5494 38.0294C79.5944 38.0801 79.6168 38.1428 79.6168 38.2172V41.3907H81.243C81.3089 41.3907 81.3643 41.4161 81.4092 41.4669C81.4542 41.5176 81.4766 41.5803 81.4766 41.6547C81.4766 41.7292 81.4542 41.7918 81.4092 41.8426C81.3643 41.8934 81.3089 41.9188 81.243 41.9188H79.3832Z" fill="white"/>
<path d="M81.8971 41.9188C81.8132 41.9188 81.7489 41.8781 81.7039 41.7969C81.659 41.7157 81.6545 41.6293 81.6905 41.5379L82.9528 38.1309C82.9977 38.0124 83.0711 37.9532 83.1729 37.9532C83.2807 37.9532 83.3541 38.0124 83.393 38.1309L84.6598 41.5481C84.6928 41.6429 84.6868 41.7292 84.6419 41.8071C84.6 41.8815 84.5356 41.9188 84.4487 41.9188C84.4038 41.9188 84.3604 41.9052 84.3184 41.8781C84.2795 41.8477 84.251 41.8071 84.2331 41.7563L83.119 38.6285H83.2448L82.1127 41.7563C82.0918 41.8104 82.0603 41.8511 82.0184 41.8781C81.9795 41.9052 81.939 41.9188 81.8971 41.9188ZM82.1352 41.0454L82.3149 40.6088H84.0759L84.2555 41.0454H82.1352Z" fill="white"/>
<path d="M86.0261 41.9695C85.8164 41.9695 85.6292 41.9188 85.4645 41.8172C85.3028 41.7123 85.1755 41.5684 85.0827 41.3856C84.9928 41.1994 84.9479 40.9879 84.9479 40.7509C84.9479 40.6731 84.9704 40.6104 85.0153 40.5631C85.0602 40.5123 85.1156 40.4869 85.1815 40.4869C85.2504 40.4869 85.3058 40.5123 85.3477 40.5631C85.3926 40.6104 85.4151 40.6731 85.4151 40.7509C85.4151 40.8965 85.4406 41.0251 85.4915 41.1368C85.5454 41.2485 85.6173 41.3365 85.7071 41.4008C85.7999 41.4618 85.9063 41.4922 86.0261 41.4922C86.1459 41.4922 86.2522 41.4618 86.345 41.4008C86.4378 41.3365 86.5097 41.2485 86.5606 41.1368C86.6145 41.0251 86.6415 40.8965 86.6415 40.7509V38.2172C86.6415 38.1394 86.6625 38.0768 86.7044 38.0294C86.7493 37.9786 86.8047 37.9532 86.8706 37.9532C86.9395 37.9532 86.9964 37.9786 87.0413 38.0294C87.0862 38.0768 87.1087 38.1394 87.1087 38.2172V40.7509C87.1087 40.9879 87.0623 41.1994 86.9694 41.3856C86.8766 41.5684 86.7493 41.7123 86.5876 41.8172C86.4259 41.9188 86.2387 41.9695 86.0261 41.9695Z" fill="white"/>
<path d="M88.2406 41.9188C88.1747 41.9188 88.1193 41.8934 88.0744 41.8426C88.0295 41.7918 88.007 41.7292 88.007 41.6547V38.2172C88.007 38.1394 88.0295 38.0768 88.0744 38.0294C88.1193 37.9786 88.1747 37.9532 88.2406 37.9532H90.2711C90.34 37.9532 90.3954 37.9769 90.4373 38.0243C90.4793 38.0683 90.5002 38.1275 90.5002 38.202C90.5002 38.2731 90.4793 38.3306 90.4373 38.3746C90.3954 38.4186 90.34 38.4407 90.2711 38.4407H88.4742V39.6745H89.7635C89.8324 39.6745 89.8878 39.6982 89.9297 39.7456C89.9716 39.7896 89.9926 39.8471 89.9926 39.9182C89.9926 39.9893 89.9716 40.0485 89.9297 40.0959C89.8878 40.1399 89.8324 40.1619 89.7635 40.1619H88.4742V41.4313H90.2711C90.34 41.4313 90.3954 41.4533 90.4373 41.4973C90.4793 41.5413 90.5002 41.5989 90.5002 41.67C90.5002 41.7444 90.4793 41.8054 90.4373 41.8527C90.3954 41.8968 90.34 41.9188 90.2711 41.9188H88.2406Z" fill="white"/>
<path d="M92.7022 41.9188C92.6363 41.9188 92.5809 41.8934 92.536 41.8426C92.491 41.7918 92.4686 41.7292 92.4686 41.6547V38.2172C92.4686 38.1394 92.491 38.0768 92.536 38.0294C92.5809 37.9786 92.6363 37.9532 92.7022 37.9532H93.6006C93.8252 37.9532 94.0244 38.0091 94.1981 38.1208C94.3718 38.2325 94.5066 38.3882 94.6024 38.5879C94.7012 38.7842 94.7506 39.011 94.7506 39.2683C94.7506 39.5154 94.7012 39.7354 94.6024 39.9284C94.5066 40.1213 94.3718 40.2719 94.1981 40.3803C94.0244 40.4886 93.8252 40.5427 93.6006 40.5427H92.9358V41.6547C92.9358 41.7292 92.9133 41.7918 92.8684 41.8426C92.8265 41.8934 92.7711 41.9188 92.7022 41.9188ZM92.9358 40.0553H93.6006C93.7384 40.0553 93.8597 40.0215 93.9645 39.9538C94.0693 39.8861 94.1517 39.793 94.2116 39.6745C94.2715 39.556 94.3014 39.4206 94.3014 39.2683C94.3014 39.1058 94.2715 38.9636 94.2116 38.8418C94.1517 38.7165 94.0693 38.6184 93.9645 38.5473C93.8597 38.4762 93.7384 38.4407 93.6006 38.4407H92.9358V40.0553Z" fill="white"/>
<path d="M95.5011 41.9188C95.4352 41.9188 95.3798 41.8934 95.3349 41.8426C95.2899 41.7918 95.2675 41.7292 95.2675 41.6547V38.2172C95.2675 38.1394 95.2899 38.0768 95.3349 38.0294C95.3798 37.9786 95.4352 37.9532 95.5011 37.9532H96.3097C96.5343 37.9532 96.7334 38.0074 96.9071 38.1157C97.0808 38.2206 97.2156 38.3662 97.3114 38.5524C97.4103 38.7385 97.4597 38.9552 97.4597 39.2023C97.4597 39.4325 97.4103 39.6373 97.3114 39.8167C97.2156 39.9961 97.0808 40.1365 96.9071 40.2381C96.7334 40.3396 96.5343 40.3904 96.3097 40.3904H95.7347V41.6547C95.7347 41.7292 95.7122 41.7918 95.6673 41.8426C95.6254 41.8934 95.57 41.9188 95.5011 41.9188ZM97.3654 41.9188C97.3234 41.9188 97.2845 41.9086 97.2486 41.8883C97.2156 41.868 97.1872 41.8358 97.1632 41.7918L96.3546 40.3193L96.8083 40.1721L97.5451 41.5126C97.599 41.6107 97.6064 41.7038 97.5675 41.7918C97.5286 41.8764 97.4612 41.9188 97.3654 41.9188ZM95.7347 39.903H96.3097C96.4474 39.903 96.5687 39.8742 96.6736 39.8167C96.7784 39.7557 96.8607 39.6728 96.9206 39.5679C96.9805 39.4595 97.0105 39.3377 97.0105 39.2023C97.0105 39.0533 96.9805 38.9213 96.9206 38.8062C96.8607 38.6911 96.7784 38.6014 96.6736 38.5371C96.5687 38.4728 96.4474 38.4407 96.3097 38.4407H95.7347V39.903Z" fill="white"/>
<path d="M99.7275 41.9695C99.464 41.9695 99.2229 41.9204 99.0043 41.8223C98.7857 41.7207 98.597 41.5803 98.4383 41.4008C98.2825 41.2181 98.1612 41.0031 98.0744 40.756C97.9875 40.5055 97.9441 40.2313 97.9441 39.9334C97.9441 39.6356 97.9875 39.3631 98.0744 39.116C98.1612 38.8689 98.2825 38.6556 98.4383 38.4762C98.597 38.2934 98.7857 38.1529 99.0043 38.0548C99.2229 37.9532 99.464 37.9024 99.7275 37.9024C99.9911 37.9024 100.231 37.9532 100.446 38.0548C100.665 38.1529 100.854 38.2934 101.012 38.4762C101.171 38.6556 101.294 38.8689 101.381 39.116C101.468 39.3631 101.511 39.6356 101.511 39.9334C101.511 40.2313 101.468 40.5055 101.381 40.756C101.294 41.0031 101.171 41.2181 101.012 41.4008C100.854 41.5803 100.665 41.7207 100.446 41.8223C100.231 41.9204 99.9911 41.9695 99.7275 41.9695ZM99.7275 41.4922C99.9222 41.4922 100.1 41.4533 100.262 41.3755C100.427 41.2942 100.569 41.1842 100.689 41.0454C100.809 40.9033 100.9 40.7374 100.963 40.5478C101.029 40.3583 101.062 40.1535 101.062 39.9334C101.062 39.7134 101.029 39.5086 100.963 39.3191C100.9 39.1295 100.809 38.9653 100.689 38.8265C100.569 38.6844 100.427 38.5744 100.262 38.4965C100.1 38.4187 99.9222 38.3797 99.7275 38.3797C99.5329 38.3797 99.3532 38.4187 99.1885 38.4965C99.0268 38.5744 98.886 38.6844 98.7662 38.8265C98.6494 38.9653 98.5581 39.1295 98.4922 39.3191C98.4263 39.5086 98.3933 39.7134 98.3933 39.9334C98.3933 40.1535 98.4263 40.3583 98.4922 40.5478C98.5581 40.7374 98.6494 40.9033 98.7662 41.0454C98.886 41.1842 99.0268 41.2942 99.1885 41.3755C99.3532 41.4533 99.5329 41.4922 99.7275 41.4922Z" fill="white"/>
<path d="M102.193 41.9188C102.127 41.9188 102.072 41.8934 102.027 41.8426C101.982 41.7918 101.96 41.7292 101.96 41.6547V38.2172C101.96 38.1394 101.982 38.0768 102.027 38.0294C102.072 37.9786 102.127 37.9532 102.193 37.9532H104.224C104.293 37.9532 104.348 37.9769 104.39 38.0243C104.432 38.0683 104.453 38.1275 104.453 38.202C104.453 38.2731 104.432 38.3306 104.39 38.3746C104.348 38.4186 104.293 38.4407 104.224 38.4407H102.427V39.6745H103.716C103.785 39.6745 103.84 39.6982 103.882 39.7456C103.924 39.7896 103.945 39.8471 103.945 39.9182C103.945 39.9893 103.924 40.0485 103.882 40.0959C103.84 40.1399 103.785 40.1619 103.716 40.1619H102.427V41.6547C102.427 41.7292 102.404 41.7918 102.36 41.8426C102.315 41.8934 102.259 41.9188 102.193 41.9188Z" fill="white"/>
<path d="M105.284 41.9188C105.218 41.9188 105.163 41.8934 105.118 41.8426C105.073 41.7918 105.05 41.7292 105.05 41.6547V38.2172C105.05 38.1394 105.073 38.0768 105.118 38.0294C105.163 37.9786 105.218 37.9532 105.284 37.9532H107.315C107.383 37.9532 107.439 37.9769 107.481 38.0243C107.523 38.0683 107.544 38.1275 107.544 38.202C107.544 38.2731 107.523 38.3306 107.481 38.3746C107.439 38.4186 107.383 38.4407 107.315 38.4407H105.518V39.6745H106.807C106.876 39.6745 106.931 39.6982 106.973 39.7456C107.015 39.7896 107.036 39.8471 107.036 39.9182C107.036 39.9893 107.015 40.0485 106.973 40.0959C106.931 40.1399 106.876 40.1619 106.807 40.1619H105.518V41.4313H107.315C107.383 41.4313 107.439 41.4533 107.481 41.4973C107.523 41.5413 107.544 41.5989 107.544 41.67C107.544 41.7444 107.523 41.8054 107.481 41.8527C107.439 41.8968 107.383 41.9188 107.315 41.9188H105.284Z" fill="white"/>
<path d="M109.31 41.9695C109.118 41.9695 108.936 41.9357 108.762 41.868C108.588 41.8003 108.437 41.7055 108.308 41.5836C108.179 41.4618 108.085 41.3213 108.025 41.1622C107.995 41.0911 107.995 41.0251 108.025 40.9642C108.058 40.9033 108.112 40.8643 108.187 40.8474C108.241 40.8339 108.293 40.844 108.344 40.8779C108.398 40.9083 108.438 40.9557 108.465 41.02C108.501 41.1047 108.56 41.1825 108.641 41.2536C108.724 41.3247 108.825 41.3822 108.942 41.4262C109.058 41.4702 109.181 41.4922 109.31 41.4922C109.454 41.4922 109.585 41.4669 109.705 41.4161C109.828 41.3653 109.927 41.2925 110.002 41.1977C110.077 41.0996 110.114 40.9794 110.114 40.8372C110.114 40.6578 110.051 40.497 109.925 40.3549C109.803 40.2127 109.599 40.1247 109.314 40.0908C108.943 40.0502 108.651 39.9267 108.438 39.7202C108.226 39.5137 108.12 39.2581 108.12 38.9535C108.12 38.7301 108.175 38.5405 108.286 38.3848C108.397 38.2291 108.546 38.1106 108.735 38.0294C108.927 37.9481 109.139 37.9075 109.373 37.9075C109.556 37.9075 109.714 37.9363 109.849 37.9938C109.987 38.0514 110.107 38.1309 110.208 38.2325C110.31 38.334 110.399 38.4542 110.473 38.593C110.515 38.6674 110.532 38.7385 110.523 38.8062C110.517 38.8705 110.488 38.9213 110.438 38.9586C110.381 38.9992 110.319 39.0076 110.253 38.9839C110.187 38.9603 110.138 38.9162 110.105 38.8519C110.057 38.7538 109.999 38.6708 109.93 38.6031C109.861 38.5354 109.78 38.483 109.687 38.4457C109.594 38.4051 109.485 38.3848 109.359 38.3848C109.138 38.3814 108.952 38.4288 108.802 38.527C108.653 38.6218 108.578 38.769 108.578 38.9687C108.578 39.0703 108.6 39.1684 108.645 39.2632C108.693 39.3546 108.778 39.4342 108.901 39.5019C109.027 39.5696 109.207 39.6169 109.44 39.644C109.797 39.6846 110.074 39.8082 110.271 40.0147C110.472 40.2178 110.572 40.4869 110.572 40.822C110.572 41.015 110.536 41.1825 110.464 41.3247C110.396 41.4669 110.301 41.587 110.181 41.6852C110.065 41.78 109.93 41.8511 109.777 41.8984C109.627 41.9458 109.472 41.9695 109.31 41.9695Z" fill="white"/>
<path d="M111.522 41.9188C111.456 41.9188 111.401 41.8934 111.356 41.8426C111.311 41.7918 111.289 41.7292 111.289 41.6547V38.2172C111.289 38.1394 111.311 38.0768 111.356 38.0294C111.401 37.9786 111.456 37.9532 111.522 37.9532C111.591 37.9532 111.647 37.9786 111.688 38.0294C111.733 38.0768 111.756 38.1394 111.756 38.2172V41.6547C111.756 41.7292 111.733 41.7918 111.688 41.8426C111.647 41.8934 111.591 41.9188 111.522 41.9188Z" fill="white"/>
<path d="M114.275 41.9695C114.011 41.9695 113.77 41.9204 113.551 41.8223C113.333 41.7207 113.144 41.5803 112.985 41.4008C112.83 41.2181 112.708 41.0031 112.622 40.756C112.535 40.5055 112.491 40.2313 112.491 39.9334C112.491 39.6356 112.535 39.3631 112.622 39.116C112.708 38.8689 112.83 38.6556 112.985 38.4762C113.144 38.2934 113.333 38.1529 113.551 38.0548C113.77 37.9532 114.011 37.9024 114.275 37.9024C114.538 37.9024 114.778 37.9532 114.993 38.0548C115.212 38.1529 115.401 38.2934 115.56 38.4762C115.718 38.6556 115.841 38.8689 115.928 39.116C116.015 39.3631 116.058 39.6356 116.058 39.9334C116.058 40.2313 116.015 40.5055 115.928 40.756C115.841 41.0031 115.718 41.2181 115.56 41.4008C115.401 41.5803 115.212 41.7207 114.993 41.8223C114.778 41.9204 114.538 41.9695 114.275 41.9695ZM114.275 41.4922C114.469 41.4922 114.648 41.4533 114.809 41.3755C114.974 41.2942 115.116 41.1842 115.236 41.0454C115.356 40.9033 115.447 40.7374 115.51 40.5478C115.576 40.3583 115.609 40.1535 115.609 39.9334C115.609 39.7134 115.576 39.5086 115.51 39.3191C115.447 39.1295 115.356 38.9653 115.236 38.8265C115.116 38.6844 114.974 38.5744 114.809 38.4965C114.648 38.4187 114.469 38.3797 114.275 38.3797C114.08 38.3797 113.9 38.4187 113.736 38.4965C113.574 38.5744 113.433 38.6844 113.313 38.8265C113.197 38.9653 113.105 39.1295 113.039 39.3191C112.973 39.5086 112.941 39.7134 112.941 39.9334C112.941 40.1535 112.973 40.3583 113.039 40.5478C113.105 40.7374 113.197 40.9033 113.313 41.0454C113.433 41.1842 113.574 41.2942 113.736 41.3755C113.9 41.4533 114.08 41.4922 114.275 41.4922Z" fill="white"/>
<path d="M117.019 41.9188C116.953 41.9188 116.898 41.8934 116.853 41.8426C116.811 41.7918 116.79 41.7292 116.79 41.6547V38.2172C116.79 38.1394 116.811 38.0768 116.853 38.0294C116.898 37.9786 116.953 37.9532 117.019 37.9532C117.091 37.9532 117.151 37.9854 117.199 38.0497L119.157 40.9946V38.2172C119.157 38.1394 119.18 38.0768 119.225 38.0294C119.27 37.9786 119.325 37.9532 119.391 37.9532C119.46 37.9532 119.515 37.9786 119.557 38.0294C119.599 38.0768 119.62 38.1394 119.62 38.2172V41.6547C119.62 41.7292 119.599 41.7918 119.557 41.8426C119.515 41.8934 119.46 41.9188 119.391 41.9188C119.361 41.9188 119.328 41.912 119.292 41.8984C119.259 41.8815 119.232 41.8578 119.211 41.8274L117.253 38.8824V41.6547C117.253 41.7292 117.23 41.7918 117.185 41.8426C117.143 41.8934 117.088 41.9188 117.019 41.9188Z" fill="white"/>
<path d="M120.38 41.9188C120.296 41.9188 120.231 41.8781 120.186 41.7969C120.142 41.7157 120.137 41.6293 120.173 41.5379L121.435 38.1309C121.48 38.0124 121.554 37.9532 121.655 37.9532C121.763 37.9532 121.837 38.0124 121.876 38.1309L123.142 41.5481C123.175 41.6429 123.169 41.7292 123.124 41.8071C123.082 41.8815 123.018 41.9188 122.931 41.9188C122.886 41.9188 122.843 41.9052 122.801 41.8781C122.762 41.8477 122.734 41.8071 122.716 41.7563L121.602 38.6285H121.727L120.595 41.7563C120.574 41.8104 120.543 41.8511 120.501 41.8781C120.462 41.9052 120.422 41.9188 120.38 41.9188ZM120.618 41.0454L120.797 40.6088H122.558L122.738 41.0454H120.618Z" fill="white"/>
<path d="M123.907 41.9188C123.841 41.9188 123.785 41.8934 123.74 41.8426C123.698 41.7918 123.677 41.7292 123.677 41.6547V38.2172C123.677 38.1428 123.7 38.0801 123.745 38.0294C123.79 37.9786 123.844 37.9532 123.907 37.9532C123.972 37.9532 124.028 37.9786 124.073 38.0294C124.118 38.0801 124.14 38.1428 124.14 38.2172V41.3907H125.766C125.832 41.3907 125.888 41.4161 125.933 41.4669C125.978 41.5176 126 41.5803 126 41.6547C126 41.7292 125.978 41.7918 125.933 41.8426C125.888 41.8934 125.832 41.9188 125.766 41.9188H123.907Z" fill="white"/>
<path d="M125.34 32.6639C123.382 28.4104 121.426 24.1569 119.467 19.9034C119.341 19.6272 119.229 19.3383 118.845 19.3425C118.461 19.3468 118.366 19.6421 118.239 19.9183C116.76 23.1371 115.279 26.3559 113.798 29.5747C113.314 30.6243 112.836 31.6738 112.35 32.7234C112.23 32.9868 112.188 33.2418 112.411 33.4691C112.589 33.6519 112.812 33.6497 113.03 33.5732C113.243 33.4989 113.314 33.2885 113.401 33.1037C113.929 31.9543 114.467 30.807 114.979 29.6512C115.148 29.2688 115.382 29.0967 115.811 29.1009C117.849 29.1158 119.887 29.1137 121.928 29.1009C122.333 29.0988 122.567 29.2603 122.725 29.63C122.995 30.2695 123.299 30.8962 123.59 31.5294C123.863 32.1179 124.137 32.7043 124.413 33.2928C124.551 33.5839 124.789 33.6646 125.082 33.5924C125.348 33.5265 125.458 33.3268 125.481 33.0187C125.445 32.9252 125.399 32.7914 125.34 32.6639ZM121.046 28.1151C120.318 28.1278 119.592 28.1151 118.866 28.1151C118.14 28.1151 117.412 28.1236 116.686 28.1151C116.077 28.1045 115.859 27.7603 116.112 27.2058C116.843 25.608 117.581 24.0167 118.309 22.4211C118.423 22.1704 118.577 21.9834 118.868 21.9877C119.136 21.9919 119.286 22.1704 119.394 22.4041C120.13 24.0125 120.875 25.6187 121.605 27.2313C121.845 27.7603 121.626 28.1045 121.046 28.1151Z" fill="white"/>
<path d="M33.0183 19.9608C33.0288 19.6549 33.1744 19.4785 33.4276 19.4084C33.7125 19.3298 33.9362 19.4551 34.0543 19.708C34.2632 20.1499 34.4447 20.6067 34.6367 21.0592C35.9196 24.0889 37.2004 27.1208 38.4833 30.1505C38.5698 30.3544 38.6353 30.5733 38.8526 30.6816C39.1775 30.8431 39.4729 30.6944 39.6586 30.2588C40.4267 28.4529 41.1884 26.647 41.9544 24.8411C42.6507 23.1945 43.3491 21.55 44.0454 19.9034C44.1784 19.589 44.3535 19.3319 44.7439 19.402C45.13 19.4721 45.2714 19.8546 45.0773 20.3135C44.2965 22.164 43.5074 24.0125 42.7245 25.863C41.718 28.2362 40.7094 30.6094 39.7093 32.9868C39.589 33.2737 39.4729 33.5626 39.11 33.5732C38.7133 33.586 38.5973 33.2715 38.4707 32.972C36.6961 28.7758 34.9194 24.5797 33.147 20.3836C33.0858 20.2391 32.9972 20.0989 33.0204 19.9629L33.0183 19.9608Z" fill="white"/>
<path d="M64.3273 8.47086C64.3273 10.0197 63.0001 11.3391 61.4408 11.3412C59.8371 11.3455 58.5584 10.0643 58.5542 8.44961C58.5479 6.8264 59.8139 5.53676 61.4155 5.53251C63.0275 5.52826 64.3273 6.83915 64.3273 8.47086Z" fill="white"/>
<path d="M64.3273 8.47086C64.3273 10.0197 63.0001 11.3391 61.4408 11.3412C59.8371 11.3455 58.5584 10.0643 58.5542 8.44961C58.5479 6.8264 59.8139 5.53676 61.4155 5.53251C63.0275 5.52826 64.3273 6.83915 64.3273 8.47086Z" fill="#D44AB5"/>
</g>
<defs>
<clipPath id="clip0_784_4331">
<rect width="126" height="42" fill="white"/>
</clipPath>
</defs>
</svg>
